<?xml version="1.0" encoding="UTF-8"?>
<!DOCTYPE svg PUBLIC "-//W3C//DTD SVG 1.1//EN" "http://www.w3.org/Graphics/SVG/1.1/DTD/svg11.dtd">
<svg xmlns="http://www.w3.org/2000/svg" version="1.1" width="1920px" height="1920px" style="shape-rendering:geometricPrecision; text-rendering:geometricPrecision; image-rendering:optimizeQuality; fill-rule:evenodd; clip-rule:evenodd" xmlns:xlink="http://www.w3.org/1999/xlink">
<g><path style="opacity:1" fill="#fefefe" d="M -0.5,-0.5 C 639.5,-0.5 1279.5,-0.5 1919.5,-0.5C 1919.5,639.5 1919.5,1279.5 1919.5,1919.5C 1279.5,1919.5 639.5,1919.5 -0.5,1919.5C -0.5,1279.5 -0.5,639.5 -0.5,-0.5 Z"/></g>
<g><path style="opacity:1" fill="#f6f6f6" d="M 327.5,563.5 C 495,562.833 662.666,562.5 830.5,562.5C 998.167,562.667 1165.83,562.833 1333.5,563C 1335.06,563.21 1336.39,563.71 1337.5,564.5C 1000.85,563.503 664.184,563.17 327.5,563.5 Z"/></g>
<g><path style="opacity:1" fill="#f1f1f1" d="M 327.5,563.5 C 664.184,563.17 1000.85,563.503 1337.5,564.5C 1370.17,570.328 1392.01,588.995 1403,620.5C 1412.98,666.036 1397.48,699.536 1356.5,721C 1352.14,722.184 1347.81,723.351 1343.5,724.5C 1339.12,724.577 1334.79,725.077 1330.5,726C 1092,726.167 853.666,726.667 615.5,727.5C 614.833,727.5 614.167,727.5 613.5,727.5C 613.83,708.659 613.497,689.993 612.5,671.5C 612.5,670.5 612.5,669.5 612.5,668.5C 612.712,664.655 611.712,661.321 609.5,658.5C 604.165,642.996 593.831,632.163 578.5,626C 551.182,618.05 529.182,625.55 512.5,648.5C 510.529,653.433 508.862,658.433 507.5,663.5C 506.732,664.263 506.232,665.263 506,666.5C 505.5,686.831 505.333,707.164 505.5,727.5C 446.832,727.667 388.166,727.5 329.5,727C 295.657,721.819 272.49,703.319 260,671.5C 248.754,624.131 264.588,589.631 307.5,568C 314.04,565.965 320.707,564.465 327.5,563.5 Z"/></g>
<g><path style="opacity:1" fill="#cccccc" d="M 609.5,658.5 C 610.137,661.456 610.637,664.456 611,667.5C 611.383,668.056 611.883,668.389 612.5,668.5C 612.5,669.5 612.5,670.5 612.5,671.5C 612.5,776.5 612.5,881.5 612.5,986.5C 614.857,986.663 617.19,986.497 619.5,986C 620.056,985.617 620.389,985.117 620.5,984.5C 664.021,970.14 690.521,940.473 700,895.5C 701,884.833 702,874.167 703,863.5C 709.388,841.942 723.555,828.942 745.5,824.5C 752.862,824.365 760.196,824.698 767.5,825.5C 791.194,831.858 804.527,847.192 807.5,871.5C 807.72,884.885 807.053,898.219 805.5,911.5C 799.689,946.303 786.689,977.97 766.5,1006.5C 752.297,1024.54 736.297,1040.7 718.5,1055C 711.526,1058.82 704.859,1063.16 698.5,1068C 690.28,1071.61 682.28,1075.45 674.5,1079.5C 670.077,1079.88 666.41,1081.55 663.5,1084.5C 646.889,1089.71 629.889,1093.37 612.5,1095.5C 612.168,1151.67 612.501,1207.67 613.5,1263.5C 614.833,1264.83 614.833,1266.17 613.5,1267.5C 612.502,1296 612.169,1324.66 612.5,1353.5C 659.845,1354.16 706.845,1353.5 753.5,1351.5C 799.736,1323.22 846.069,1295.22 892.5,1267.5C 915.44,1252.87 940.44,1243.54 967.5,1239.5C 980.821,1238.79 994.155,1238.45 1007.5,1238.5C 1012.18,1238.67 1016.85,1239 1021.5,1239.5C 1022.17,1239.5 1022.83,1239.5 1023.5,1239.5C 1025.84,1241.04 1028.5,1241.71 1031.5,1241.5C 1047.39,1244.39 1062.39,1249.39 1076.5,1256.5C 1078.03,1258.25 1080.03,1259.25 1082.5,1259.5C 1088.69,1261.97 1094.36,1265.47 1099.5,1270C 1101.91,1271.88 1104.58,1272.55 1107.5,1272C 1110.17,1270 1112.83,1268 1115.5,1266C 1145.21,1248.48 1174.88,1230.98 1204.5,1213.5C 1206.85,1213.41 1208.51,1212.41 1209.5,1210.5C 1213.03,1208.23 1216.7,1206.23 1220.5,1204.5C 1223.13,1203.13 1225.97,1202.13 1229,1201.5C 1230.03,1201.16 1230.53,1200.5 1230.5,1199.5C 1234.53,1197.78 1238.53,1196.12 1242.5,1194.5C 1246.1,1195.62 1249.1,1194.62 1251.5,1191.5C 1257.88,1189.09 1264.54,1187.42 1271.5,1186.5C 1279.67,1185.78 1287.67,1184.78 1295.5,1183.5C 1306.19,1183.39 1316.85,1183.72 1327.5,1184.5C 1335.65,1185.03 1343.65,1186.37 1351.5,1188.5C 1356.62,1190.3 1361.95,1191.8 1367.5,1193C 1391.17,1202.62 1413.5,1214.95 1434.5,1230C 1456.45,1241.64 1477.79,1254.31 1498.5,1268C 1504.61,1270.11 1509.94,1273.44 1514.5,1278C 1522.71,1282.61 1531.05,1286.94 1539.5,1291C 1544.52,1294.7 1549.52,1298.37 1554.5,1302C 1572.67,1310.76 1590.01,1321.09 1606.5,1333C 1617,1337.41 1626.66,1343.08 1635.5,1350C 1636.83,1350.67 1638.17,1351.33 1639.5,1352C 1651.5,1352.5 1663.5,1352.67 1675.5,1352.5C 1707.84,1352.33 1740.17,1352.5 1772.5,1353C 1783.12,1354.8 1791.12,1360.3 1796.5,1369.5C 1796.97,1373.89 1798.3,1377.89 1800.5,1381.5C 1800.43,1400.67 1791.1,1412.33 1772.5,1416.5C 1228.47,1416.83 684.473,1416.5 140.5,1415.5C 129.443,1412.11 122.443,1404.77 119.5,1393.5C 118.638,1389.55 118.305,1385.55 118.5,1381.5C 120.701,1377.89 122.034,1373.89 122.5,1369.5C 124.686,1364.64 128.019,1360.64 132.5,1357.5C 135.756,1355.7 139.089,1354.2 142.5,1353C 184.499,1352.5 226.499,1352.33 268.5,1352.5C 347.5,1352.5 426.5,1352.5 505.5,1352.5C 506.833,1325.83 506.833,1299.17 505.5,1272.5C 506.817,1249.37 506.817,1226.37 505.5,1203.5C 480.141,1201.03 456.141,1194.03 433.5,1182.5C 424.677,1177.59 416.011,1172.42 407.5,1167C 400.313,1161.91 393.313,1156.57 386.5,1151C 355.796,1122.1 333.796,1087.6 320.5,1047.5C 318.063,1034.15 315.563,1020.81 313,1007.5C 312.5,951.501 312.333,895.501 312.5,839.5C 313.139,830.921 315.472,822.921 319.5,815.5C 321.587,814.415 322.92,812.749 323.5,810.5C 324.443,807.891 326.11,805.891 328.5,804.5C 333.012,800.44 338.012,797.106 343.5,794.5C 345.848,792.903 348.514,791.903 351.5,791.5C 354.428,791.435 357.095,790.768 359.5,789.5C 380.193,788.269 397.026,795.603 410,811.5C 413.412,817.182 415.912,823.182 417.5,829.5C 418.142,884.986 418.808,940.32 419.5,995.5C 420.612,1007.62 423.446,1019.28 428,1030.5C 435.874,1045.38 445.707,1058.88 457.5,1071C 470.31,1080.74 484.31,1088.41 499.5,1094C 501.473,1094.5 503.473,1094.66 505.5,1094.5C 506.174,950.984 506.841,807.317 507.5,663.5C 508.862,658.433 510.529,653.433 512.5,648.5C 529.182,625.55 551.182,618.05 578.5,626C 593.831,632.163 604.165,642.996 609.5,658.5 Z"/></g>
<g><path style="opacity:1" fill="#eaeaea" d="M 1549.5,650.5 C 1548.92,652.749 1547.59,654.415 1545.5,655.5C 1546.08,653.251 1547.41,651.585 1549.5,650.5 Z"/></g>
<g><path style="opacity:1" fill="#d9d9d9" d="M 609.5,658.5 C 611.712,661.321 612.712,664.655 612.5,668.5C 611.883,668.389 611.383,668.056 611,667.5C 610.637,664.456 610.137,661.456 609.5,658.5 Z"/></g>
<g><path style="opacity:1" fill="#eaeaea" d="M 1539.5,663.5 C 1538.58,666.089 1536.91,668.089 1534.5,669.5C 1535.42,666.911 1537.09,664.911 1539.5,663.5 Z"/></g>
<g><path style="opacity:1" fill="#ededed" d="M 1532.5,671.5 C 1529.8,676.901 1526.13,681.568 1521.5,685.5C 1524.69,680.462 1528.35,675.795 1532.5,671.5 Z"/></g>
<g><path style="opacity:1" fill="#cdcdcd" d="M 1454.5,840.5 C 1452.25,841.124 1450.58,842.457 1449.5,844.5C 1440.05,852.065 1430.38,859.398 1420.5,866.5C 1385.07,892.543 1348.07,916.043 1309.5,937C 1307.83,937.333 1306.17,937.667 1304.5,938C 1290.2,945.163 1275.87,951.997 1261.5,958.5C 1259.68,964.306 1257.68,969.973 1255.5,975.5C 1255.65,974.448 1255.48,973.448 1255,972.5C 1254.71,974.044 1254.04,975.377 1253,976.5C 1252.67,975.833 1252.33,975.167 1252,974.5C 1251.31,975.357 1250.48,976.023 1249.5,976.5C 1248.94,974.282 1248.94,971.949 1249.5,969.5C 1249.42,968.07 1249.75,966.736 1250.5,965.5C 1249.5,965.167 1248.5,964.833 1247.5,964.5C 1239.36,967.254 1231.36,970.254 1223.5,973.5C 1219.46,974.065 1215.8,975.399 1212.5,977.5C 1208.11,978.681 1203.78,980.014 1199.5,981.5C 1194.07,983.176 1188.74,984.842 1183.5,986.5C 1136.63,1000.76 1088.63,1006.43 1039.5,1003.5C 1036.09,1002.1 1032.42,1001.43 1028.5,1001.5C 1025.63,1000.37 1022.63,999.7 1019.5,999.5C 1019.39,998.883 1019.06,998.383 1018.5,998C 1015.45,997.261 1012.45,996.428 1009.5,995.5C 986.043,987.155 977.543,970.822 984,946.5C 985.646,944.391 986.812,942.057 987.5,939.5C 1003.33,915.175 1024.33,896.675 1050.5,884C 1051.5,883 1052.5,882 1053.5,881C 1093.75,861.342 1136.08,855.675 1180.5,864C 1195.25,868.073 1209.25,873.573 1222.5,880.5C 1229.3,885.132 1235.63,890.299 1241.5,896C 1253.4,909.829 1260.4,925.996 1262.5,944.5C 1305.85,924.155 1347.51,900.655 1387.5,874C 1397.02,867.303 1406.35,860.47 1415.5,853.5C 1473.91,808.261 1526.24,756.761 1572.5,699C 1581.89,697.395 1585.39,701.229 1583,710.5C 1544.52,757.817 1501.68,801.15 1454.5,840.5 Z"/></g>
<g><path style="opacity:1" fill="#dddddd" d="M 1492.5,707.5 C 1490.26,711.41 1487.26,714.743 1483.5,717.5C 1485.79,713.538 1488.79,710.205 1492.5,707.5 Z"/></g>
<g><path style="opacity:1" fill="#f5f5f5" d="M 1343.5,724.5 C 1340.37,725.632 1337.04,726.465 1333.5,727C 1094.17,727.5 854.834,727.667 615.5,727.5C 853.666,726.667 1092,726.167 1330.5,726C 1334.79,725.077 1339.12,724.577 1343.5,724.5 Z"/></g>
<g><path style="opacity:1" fill="#e0e0e0" d="M 507.5,663.5 C 506.841,807.317 506.174,950.984 505.5,1094.5C 505.5,1033.83 505.5,973.167 505.5,912.5C 505.5,850.833 505.5,789.167 505.5,727.5C 505.333,707.164 505.5,686.831 506,666.5C 506.232,665.263 506.732,664.263 507.5,663.5 Z"/></g>
<g><path style="opacity:1" fill="#e0e0e0" d="M 359.5,789.5 C 357.095,790.768 354.428,791.435 351.5,791.5C 353.838,789.96 356.505,789.294 359.5,789.5 Z"/></g>
<g><path style="opacity:1" fill="#ebebeb" d="M 1413.5,793.5 C 1412.29,796.044 1410.29,797.378 1407.5,797.5C 1409.22,795.782 1411.22,794.449 1413.5,793.5 Z"/></g>
<g><path style="opacity:1" fill="#e2e2e2" d="M 343.5,794.5 C 338.012,797.106 333.012,800.44 328.5,804.5C 331.979,798.992 336.979,795.659 343.5,794.5 Z"/></g>
<g><path style="opacity:1" fill="#f1f1f1" d="M 1370.5,818.5 C 1369.03,819.806 1367.7,821.306 1366.5,823C 1356.24,830.28 1346.24,837.78 1336.5,845.5C 1333.38,847.234 1330.38,849.234 1327.5,851.5C 1326.65,852.966 1325.32,853.8 1323.5,854C 1318.84,859.071 1319.84,861.404 1326.5,861C 1344.34,847.977 1362.01,834.81 1379.5,821.5C 1387.39,827.368 1395.05,833.701 1402.5,840.5C 1406.28,844.415 1409.28,848.748 1411.5,853.5C 1412.83,853.5 1414.17,853.5 1415.5,853.5C 1406.35,860.47 1397.02,867.303 1387.5,874C 1347.51,900.655 1305.85,924.155 1262.5,944.5C 1260.4,925.996 1253.4,909.829 1241.5,896C 1235.63,890.299 1229.3,885.132 1222.5,880.5C 1209.25,873.573 1195.25,868.073 1180.5,864C 1136.08,855.675 1093.75,861.342 1053.5,881C 1052.5,882 1051.5,883 1050.5,884C 1024.33,896.675 1003.33,915.175 987.5,939.5C 987.225,937.158 986.392,937.158 985,939.5C 923.261,976.009 884.261,1029.68 868,1100.5C 860.916,1133.83 860.749,1167.16 867.5,1200.5C 867.167,1201.17 866.833,1201.83 866.5,1202.5C 868.045,1203.45 869.712,1203.79 871.5,1203.5C 798.568,1228.69 723.901,1247.36 647.5,1259.5C 637.311,1260.42 627.311,1261.75 617.5,1263.5C 616.167,1263.5 614.833,1263.5 613.5,1263.5C 612.501,1207.67 612.168,1151.67 612.5,1095.5C 629.889,1093.37 646.889,1089.71 663.5,1084.5C 667.395,1083.05 671.062,1081.38 674.5,1079.5C 682.28,1075.45 690.28,1071.61 698.5,1068C 704.859,1063.16 711.526,1058.82 718.5,1055C 736.297,1040.7 752.297,1024.54 766.5,1006.5C 786.689,977.97 799.689,946.303 805.5,911.5C 808.429,898.264 809.096,884.93 807.5,871.5C 804.527,847.192 791.194,831.858 767.5,825.5C 763.44,823.983 759.107,823.316 754.5,823.5C 751.314,823.502 748.314,823.835 745.5,824.5C 723.555,828.942 709.388,841.942 703,863.5C 702,874.167 701,884.833 700,895.5C 690.521,940.473 664.021,970.14 620.5,984.5C 618.236,985.219 615.903,985.552 613.5,985.5C 613.5,926.833 613.5,868.167 613.5,809.5C 851.46,808.335 1089.46,808.169 1327.5,809C 1342.62,808.961 1356.96,812.128 1370.5,818.5 Z"/></g>
<g><path style="opacity:1" fill="#cecece" d="M 1549.5,650.5 C 1547.41,651.585 1546.08,653.251 1545.5,655.5C 1543.12,657.878 1541.12,660.545 1539.5,663.5C 1537.09,664.911 1535.42,666.911 1534.5,669.5C 1533.5,669.833 1532.83,670.5 1532.5,671.5C 1528.35,675.795 1524.69,680.462 1521.5,685.5C 1506.52,702.65 1491.02,719.317 1475,735.5C 1454.93,755.404 1434.43,774.737 1413.5,793.5C 1411.22,794.449 1409.22,795.782 1407.5,797.5C 1398.46,805.874 1389.13,813.874 1379.5,821.5C 1362.01,834.81 1344.34,847.977 1326.5,861C 1319.84,861.404 1318.84,859.071 1323.5,854C 1325.32,853.8 1326.65,852.966 1327.5,851.5C 1331.32,850.754 1334.32,848.754 1336.5,845.5C 1346.24,837.78 1356.24,830.28 1366.5,823C 1367.7,821.306 1369.03,819.806 1370.5,818.5C 1371.77,817.91 1373.1,817.41 1374.5,817C 1392.76,801.421 1411.09,785.755 1429.5,770C 1447.64,752.537 1465.64,735.037 1483.5,717.5C 1487.26,714.743 1490.26,711.41 1492.5,707.5C 1518.9,678.411 1543.57,647.744 1566.5,615.5C 1570.48,607.537 1574.98,599.87 1580,592.5C 1585.15,589.104 1587.15,590.438 1586,596.5C 1584.25,598.49 1583.25,600.823 1583,603.5C 1571.54,619.102 1560.37,634.769 1549.5,650.5 Z"/></g>
<g><path style="opacity:1" fill="#e0e0e0" d="M 323.5,810.5 C 322.92,812.749 321.587,814.415 319.5,815.5C 320.08,813.251 321.413,811.585 323.5,810.5 Z"/></g>
<g><path style="opacity:1" fill="#e1e1e1" d="M 612.5,671.5 C 613.497,689.993 613.83,708.659 613.5,727.5C 613.5,754.833 613.5,782.167 613.5,809.5C 613.5,868.167 613.5,926.833 613.5,985.5C 615.903,985.552 618.236,985.219 620.5,984.5C 620.389,985.117 620.056,985.617 619.5,986C 617.19,986.497 614.857,986.663 612.5,986.5C 612.5,881.5 612.5,776.5 612.5,671.5 Z"/></g>
<g><path style="opacity:1" fill="#dfdfdf" d="M 745.5,824.5 C 748.314,823.835 751.314,823.502 754.5,823.5C 759.107,823.316 763.44,823.983 767.5,825.5C 760.196,824.698 752.862,824.365 745.5,824.5 Z"/></g>
<g><path style="opacity:1" fill="#dcdcdc" d="M 417.5,829.5 C 418.222,829.918 418.722,830.584 419,831.5C 419.5,858.831 419.667,886.165 419.5,913.5C 419.5,940.833 419.5,968.167 419.5,995.5C 418.808,940.32 418.142,884.986 417.5,829.5 Z"/></g>
<g><path style="opacity:1" fill="#e9e9e9" d="M 1454.5,840.5 C 1453.46,842.531 1451.79,843.864 1449.5,844.5C 1450.58,842.457 1452.25,841.124 1454.5,840.5 Z"/></g>
<g><path style="opacity:1" fill="#dcdcdc" d="M 1336.5,845.5 C 1334.32,848.754 1331.32,850.754 1327.5,851.5C 1330.38,849.234 1333.38,847.234 1336.5,845.5 Z"/></g>
<g><path style="opacity:1" fill="#f1f1f1" d="M 1420.5,866.5 C 1427.58,880.836 1431.25,896.169 1431.5,912.5C 1460.84,912.333 1490.17,912.5 1519.5,913C 1580.61,916.902 1633.61,939.402 1678.5,980.5C 1679.39,981.325 1679.72,982.325 1679.5,983.5C 1683.17,985.167 1685.83,987.833 1687.5,991.5C 1691.37,993.698 1694.71,996.698 1697.5,1000.5C 1751.18,1066.3 1769.01,1141.3 1751,1225.5C 1737.58,1275.04 1712.41,1317.37 1675.5,1352.5C 1663.5,1352.67 1651.5,1352.5 1639.5,1352C 1638.17,1351.33 1636.83,1350.67 1635.5,1350C 1626.66,1343.08 1617,1337.41 1606.5,1333C 1590.01,1321.09 1572.67,1310.76 1554.5,1302C 1549.52,1298.37 1544.52,1294.7 1539.5,1291C 1531.05,1286.94 1522.71,1282.61 1514.5,1278C 1509.94,1273.44 1504.61,1270.11 1498.5,1268C 1477.79,1254.31 1456.45,1241.64 1434.5,1230C 1413.5,1214.95 1391.17,1202.62 1367.5,1193C 1361.95,1191.8 1356.62,1190.3 1351.5,1188.5C 1353.2,1188.66 1354.87,1188.49 1356.5,1188C 1365.97,1096.94 1336.63,1021.11 1268.5,960.5C 1266.39,959.056 1264.06,958.39 1261.5,958.5C 1275.87,951.997 1290.2,945.163 1304.5,938C 1306.17,937.667 1307.83,937.333 1309.5,937C 1348.07,916.043 1385.07,892.543 1420.5,866.5 Z"/></g>
<g><path style="opacity:1" fill="#f1f1f1" d="M 1250.5,949.5 C 1249.93,947.922 1248.93,946.588 1247.5,945.5C 1174.13,900.01 1096.79,892.343 1015.5,922.5C 1015.76,920.224 1017.09,919.057 1019.5,919C 1031.16,906.666 1044.49,896.666 1059.5,889C 1094.92,871.705 1132.26,866.039 1171.5,872C 1186.58,874.918 1200.92,879.585 1214.5,886C 1218.59,890.077 1223.25,893.41 1228.5,896C 1233.94,901.064 1238.94,906.564 1243.5,912.5C 1250.16,923.649 1253.33,935.649 1253,948.5C 1252.33,949.252 1251.5,949.586 1250.5,949.5 Z"/></g>
<g><path style="opacity:1" fill="#dcdcdc" d="M 807.5,871.5 C 809.096,884.93 808.429,898.264 805.5,911.5C 807.053,898.219 807.72,884.885 807.5,871.5 Z"/></g>
<g><path style="opacity:1" fill="#fefefe" d="M 1250.5,949.5 C 1225.78,959.586 1200.78,968.586 1175.5,976.5C 1172.5,976.294 1169.84,976.96 1167.5,978.5C 1164.57,978.565 1161.91,979.232 1159.5,980.5C 1156.85,980.41 1154.51,981.076 1152.5,982.5C 1131.09,987.434 1109.42,990.934 1087.5,993C 1070.43,993.982 1053.43,993.482 1036.5,991.5C 1029.54,989.915 1022.54,988.249 1015.5,986.5C 994.521,979.204 988.187,965.204 996.5,944.5C 1001.48,935.865 1007.81,928.532 1015.5,922.5C 1096.79,892.343 1174.13,900.01 1247.5,945.5C 1248.93,946.588 1249.93,947.922 1250.5,949.5 Z"/></g>
<g><path style="opacity:1" fill="#f1f1f1" d="M 505.5,912.5 C 505.5,973.167 505.5,1033.83 505.5,1094.5C 503.473,1094.66 501.473,1094.5 499.5,1094C 484.31,1088.41 470.31,1080.74 457.5,1071C 445.707,1058.88 435.874,1045.38 428,1030.5C 423.446,1019.28 420.612,1007.62 419.5,995.5C 419.5,968.167 419.5,940.833 419.5,913.5C 447.847,912.537 476.513,912.203 505.5,912.5 Z"/></g>
<g><path style="opacity:1" fill="#fefefe" d="M 987.5,939.5 C 986.812,942.057 985.646,944.391 984,946.5C 977.543,970.822 986.043,987.155 1009.5,995.5C 1012.35,997.729 1015.69,999.062 1019.5,999.5C 1022.63,999.7 1025.63,1000.37 1028.5,1001.5C 1031.91,1002.9 1035.58,1003.57 1039.5,1003.5C 1088.63,1006.43 1136.63,1000.76 1183.5,986.5C 1189.41,986.361 1194.74,984.695 1199.5,981.5C 1203.78,980.014 1208.11,978.681 1212.5,977.5C 1216.73,977.543 1220.4,976.21 1223.5,973.5C 1231.36,970.254 1239.36,967.254 1247.5,964.5C 1248.5,964.833 1249.5,965.167 1250.5,965.5C 1249.75,966.736 1249.42,968.07 1249.5,969.5C 1248.26,971.214 1247.59,973.214 1247.5,975.5C 1245.75,977.033 1244.75,979.033 1244.5,981.5C 1240.23,989.608 1235.73,997.608 1231,1005.5C 1213.34,1025.65 1193.84,1043.99 1172.5,1060.5C 1142.1,1082.2 1110.1,1101.03 1076.5,1117C 1054.88,1128.4 1032.88,1138.9 1010.5,1148.5C 1008.03,1148.75 1006.03,1149.75 1004.5,1151.5C 960.922,1170.1 916.588,1187.43 871.5,1203.5C 869.712,1203.79 868.045,1203.45 866.5,1202.5C 866.833,1201.83 867.167,1201.17 867.5,1200.5C 860.749,1167.16 860.916,1133.83 868,1100.5C 884.261,1029.68 923.261,976.009 985,939.5C 986.392,937.158 987.225,937.158 987.5,939.5 Z"/></g>
<g><path style="opacity:1" fill="#f1f1f1" d="M 312.5,839.5 C 312.333,895.501 312.5,951.501 313,1007.5C 315.563,1020.81 318.063,1034.15 320.5,1047.5C 333.796,1087.6 355.796,1122.1 386.5,1151C 393.313,1156.57 400.313,1161.91 407.5,1167C 416.011,1172.42 424.677,1177.59 433.5,1182.5C 456.141,1194.03 480.141,1201.03 505.5,1203.5C 505.5,1225.5 505.5,1247.5 505.5,1269.5C 471.22,1269.59 437.22,1266.92 403.5,1261.5C 366.766,1256.26 330.766,1247.59 295.5,1235.5C 262.213,1223.52 230.213,1208.85 199.5,1191.5C 194.851,1187.5 189.518,1184.5 183.5,1182.5C 160.348,1168 139.181,1151 120,1131.5C 119.333,1130.5 119.333,1129.5 120,1128.5C 126.068,1134.74 132.235,1140.74 138.5,1146.5C 141.18,1143.56 141.847,1143.89 140.5,1147.5C 143.6,1150.89 146.933,1154.06 150.5,1157C 159.862,1164.01 169.195,1171.01 178.5,1178C 180.914,1179.88 183.581,1180.55 186.5,1180C 183.117,1092.29 215.117,1020.79 282.5,965.5C 291.511,958.663 300.845,952.33 310.5,946.5C 311.167,910.669 311.833,875.002 312.5,839.5 Z"/></g>
<g><path style="opacity:1" fill="#fefefe" d="M 1261.5,958.5 C 1264.06,958.39 1266.39,959.056 1268.5,960.5C 1336.63,1021.11 1365.97,1096.94 1356.5,1188C 1354.87,1188.49 1353.2,1188.66 1351.5,1188.5C 1343.65,1186.37 1335.65,1185.03 1327.5,1184.5C 1326.39,1183.71 1325.06,1183.21 1323.5,1183C 1312.33,1182.17 1301.33,1182.34 1290.5,1183.5C 1283.86,1183.45 1277.53,1184.45 1271.5,1186.5C 1264.54,1187.42 1257.88,1189.09 1251.5,1191.5C 1248.14,1191.69 1245.14,1192.69 1242.5,1194.5C 1238.53,1196.12 1234.53,1197.78 1230.5,1199.5C 1227.95,1200.61 1225.28,1201.44 1222.5,1202C 1221.62,1202.71 1220.95,1203.54 1220.5,1204.5C 1216.7,1206.23 1213.03,1208.23 1209.5,1210.5C 1207.33,1210.75 1205.66,1211.75 1204.5,1213.5C 1174.88,1230.98 1145.21,1248.48 1115.5,1266C 1112.83,1268 1110.17,1270 1107.5,1272C 1104.58,1272.55 1101.91,1271.88 1099.5,1270C 1094.36,1265.47 1088.69,1261.97 1082.5,1259.5C 1081.09,1257.46 1079.09,1256.46 1076.5,1256.5C 1062.39,1249.39 1047.39,1244.39 1031.5,1241.5C 1029.16,1239.96 1026.5,1239.29 1023.5,1239.5C 1022.83,1239.5 1022.17,1239.5 1021.5,1239.5C 1020.74,1238.73 1019.74,1238.23 1018.5,1238C 1014.85,1237.5 1011.18,1237.33 1007.5,1237.5C 996.828,1237.33 986.161,1237.5 975.5,1238C 972.635,1238.18 969.969,1238.68 967.5,1239.5C 940.44,1243.54 915.44,1252.87 892.5,1267.5C 888.452,1262.49 884.952,1256.49 882,1249.5C 877.886,1237.48 873.719,1225.65 869.5,1214C 869.912,1212.44 870.245,1210.94 870.5,1209.5C 884.362,1204.66 898.362,1199.99 912.5,1195.5C 918.007,1194.55 923.007,1192.55 927.5,1189.5C 933.999,1185.94 940.999,1183.44 948.5,1182C 976.121,1170.23 1003.79,1158.4 1031.5,1146.5C 1033.97,1146.25 1035.97,1145.25 1037.5,1143.5C 1039.83,1142.63 1042.16,1141.63 1044.5,1140.5C 1046.97,1140.25 1048.97,1139.25 1050.5,1137.5C 1052.69,1136.24 1055.02,1135.24 1057.5,1134.5C 1059.97,1134.35 1061.97,1133.35 1063.5,1131.5C 1080.47,1123.98 1096.81,1115.48 1112.5,1106C 1114.17,1105.67 1115.83,1105.33 1117.5,1105C 1120.2,1102.32 1123.2,1099.98 1126.5,1098C 1147.28,1087.29 1166.61,1074.63 1184.5,1060C 1209.77,1042.23 1230.77,1020.4 1247.5,994.5C 1249.97,991.663 1251.63,988.329 1252.5,984.5C 1253.7,981.579 1254.7,978.579 1255.5,975.5C 1257.68,969.973 1259.68,964.306 1261.5,958.5 Z"/></g>
<g><path style="opacity:1" fill="#ececec" d="M 1223.5,973.5 C 1220.4,976.21 1216.73,977.543 1212.5,977.5C 1215.8,975.399 1219.46,974.065 1223.5,973.5 Z"/></g>
<g><path style="opacity:1" fill="#e1e1e1" d="M 1175.5,976.5 C 1173.09,977.768 1170.43,978.435 1167.5,978.5C 1169.84,976.96 1172.5,976.294 1175.5,976.5 Z"/></g>
<g><path style="opacity:1" fill="#e6e6e6" d="M 1247.5,975.5 C 1247.25,977.967 1246.25,979.967 1244.5,981.5C 1244.75,979.033 1245.75,977.033 1247.5,975.5 Z"/></g>
<g><path style="opacity:1" fill="#e4e4e4" d="M 1159.5,980.5 C 1157.49,981.924 1155.15,982.59 1152.5,982.5C 1154.51,981.076 1156.85,980.41 1159.5,980.5 Z"/></g>
<g><path style="opacity:1" fill="#eeeeee" d="M 1199.5,981.5 C 1194.74,984.695 1189.41,986.361 1183.5,986.5C 1188.74,984.842 1194.07,983.176 1199.5,981.5 Z"/></g>
<g><path style="opacity:1" fill="#eeeeee" d="M 1015.5,986.5 C 1022.54,988.249 1029.54,989.915 1036.5,991.5C 1028.95,991.39 1021.95,989.723 1015.5,986.5 Z"/></g>
<g><path style="opacity:1" fill="#e9e9e9" d="M 1252.5,984.5 C 1251.63,988.329 1249.97,991.663 1247.5,994.5C 1248.37,990.671 1250.03,987.337 1252.5,984.5 Z"/></g>
<g><path style="opacity:1" fill="#e4e4e4" d="M 1009.5,995.5 C 1012.45,996.428 1015.45,997.261 1018.5,998C 1019.06,998.383 1019.39,998.883 1019.5,999.5C 1015.69,999.062 1012.35,997.729 1009.5,995.5 Z"/></g>
<g><path style="opacity:1" fill="#e6e6e6" d="M 1028.5,1001.5 C 1032.42,1001.43 1036.09,1002.1 1039.5,1003.5C 1035.58,1003.57 1031.91,1002.9 1028.5,1001.5 Z"/></g>
<g><path style="opacity:1" fill="#e3e3e3" d="M 674.5,1079.5 C 671.062,1081.38 667.395,1083.05 663.5,1084.5C 666.41,1081.55 670.077,1079.88 674.5,1079.5 Z"/></g>
<g><path style="opacity:1" fill="#e2e2e2" d="M 1063.5,1131.5 C 1061.97,1133.35 1059.97,1134.35 1057.5,1134.5C 1058.91,1132.46 1060.91,1131.46 1063.5,1131.5 Z"/></g>
<g><path style="opacity:1" fill="#e8e8e8" d="M 1050.5,1137.5 C 1048.97,1139.25 1046.97,1140.25 1044.5,1140.5C 1046.03,1138.75 1048.03,1137.75 1050.5,1137.5 Z"/></g>
<g><path style="opacity:1" fill="#eaeaea" d="M 1037.5,1143.5 C 1035.97,1145.25 1033.97,1146.25 1031.5,1146.5C 1033.03,1144.75 1035.03,1143.75 1037.5,1143.5 Z"/></g>
<g><path style="opacity:1" fill="#e3e3e3" d="M 1010.5,1148.5 C 1008.97,1150.25 1006.97,1151.25 1004.5,1151.5C 1006.03,1149.75 1008.03,1148.75 1010.5,1148.5 Z"/></g>
<g><path style="opacity:1" fill="#ebebeb" d="M 1290.5,1183.5 C 1301.33,1182.34 1312.33,1182.17 1323.5,1183C 1325.06,1183.21 1326.39,1183.71 1327.5,1184.5C 1316.85,1183.72 1306.19,1183.39 1295.5,1183.5C 1293.83,1183.5 1292.17,1183.5 1290.5,1183.5 Z"/></g>
<g><path style="opacity:1" fill="#e0e0e0" d="M 1290.5,1183.5 C 1292.17,1183.5 1293.83,1183.5 1295.5,1183.5C 1287.67,1184.78 1279.67,1185.78 1271.5,1186.5C 1277.53,1184.45 1283.86,1183.45 1290.5,1183.5 Z"/></g>
<g><path style="opacity:1" fill="#e2e2e2" d="M 183.5,1182.5 C 189.518,1184.5 194.851,1187.5 199.5,1191.5C 194.453,1190.48 190.12,1188.14 186.5,1184.5C 185.29,1184.07 184.29,1183.4 183.5,1182.5 Z"/></g>
<g><path style="opacity:1" fill="#f1f1f1" d="M 186.5,1184.5 C 190.12,1188.14 194.453,1190.48 199.5,1191.5C 201.913,1193.89 204.58,1196.05 207.5,1198C 234.995,1213.24 263.661,1226.08 293.5,1236.5C 327.776,1249.03 363.11,1258.03 399.5,1263.5C 433.883,1269.48 468.55,1272.48 503.5,1272.5C 505.477,1298.94 506.144,1325.61 505.5,1352.5C 426.5,1352.5 347.5,1352.5 268.5,1352.5C 219.983,1307.01 192.649,1251.01 186.5,1184.5 Z"/></g>
<g><path style="opacity:1" fill="#efefef" d="M 927.5,1189.5 C 923.007,1192.55 918.007,1194.55 912.5,1195.5C 912.611,1194.88 912.944,1194.38 913.5,1194C 918.111,1192.19 922.777,1190.69 927.5,1189.5 Z"/></g>
<g><path style="opacity:1" fill="#dadada" d="M 1251.5,1191.5 C 1249.1,1194.62 1246.1,1195.62 1242.5,1194.5C 1245.14,1192.69 1248.14,1191.69 1251.5,1191.5 Z"/></g>
<g><path style="opacity:1" fill="#dcdcdc" d="M 1230.5,1199.5 C 1230.53,1200.5 1230.03,1201.16 1229,1201.5C 1225.97,1202.13 1223.13,1203.13 1220.5,1204.5C 1220.95,1203.54 1221.62,1202.71 1222.5,1202C 1225.28,1201.44 1227.95,1200.61 1230.5,1199.5 Z"/></g>
<g><path style="opacity:1" fill="#cfcfcf" d="M 1249.5,969.5 C 1248.94,971.949 1248.94,974.282 1249.5,976.5C 1250.48,976.023 1251.31,975.357 1252,974.5C 1252.33,975.167 1252.67,975.833 1253,976.5C 1254.04,975.377 1254.71,974.044 1255,972.5C 1255.48,973.448 1255.65,974.448 1255.5,975.5C 1254.7,978.579 1253.7,981.579 1252.5,984.5C 1250.03,987.337 1248.37,990.671 1247.5,994.5C 1230.77,1020.4 1209.77,1042.23 1184.5,1060C 1166.61,1074.63 1147.28,1087.29 1126.5,1098C 1123.2,1099.98 1120.2,1102.32 1117.5,1105C 1115.83,1105.33 1114.17,1105.67 1112.5,1106C 1096.81,1115.48 1080.47,1123.98 1063.5,1131.5C 1060.91,1131.46 1058.91,1132.46 1057.5,1134.5C 1055.02,1135.24 1052.69,1136.24 1050.5,1137.5C 1048.03,1137.75 1046.03,1138.75 1044.5,1140.5C 1042.16,1141.63 1039.83,1142.63 1037.5,1143.5C 1035.03,1143.75 1033.03,1144.75 1031.5,1146.5C 1003.79,1158.4 976.121,1170.23 948.5,1182C 940.999,1183.44 933.999,1185.94 927.5,1189.5C 922.777,1190.69 918.111,1192.19 913.5,1194C 912.944,1194.38 912.611,1194.88 912.5,1195.5C 898.362,1199.99 884.362,1204.66 870.5,1209.5C 792.821,1236.08 713.155,1254.75 631.5,1265.5C 625.428,1265.68 619.428,1266.34 613.5,1267.5C 614.833,1266.17 614.833,1264.83 613.5,1263.5C 614.833,1263.5 616.167,1263.5 617.5,1263.5C 626.531,1263.06 635.531,1262.23 644.5,1261C 645.737,1260.77 646.737,1260.27 647.5,1259.5C 723.901,1247.36 798.568,1228.69 871.5,1203.5C 916.588,1187.43 960.922,1170.1 1004.5,1151.5C 1006.97,1151.25 1008.97,1150.25 1010.5,1148.5C 1032.88,1138.9 1054.88,1128.4 1076.5,1117C 1110.1,1101.03 1142.1,1082.2 1172.5,1060.5C 1193.84,1043.99 1213.34,1025.65 1231,1005.5C 1235.73,997.608 1240.23,989.608 1244.5,981.5C 1246.25,979.967 1247.25,977.967 1247.5,975.5C 1247.59,973.214 1248.26,971.214 1249.5,969.5 Z"/></g>
<g><path style="opacity:1" fill="#f1f1f1" d="M 870.5,1209.5 C 870.245,1210.94 869.912,1212.44 869.5,1214C 873.719,1225.65 877.886,1237.48 882,1249.5C 884.952,1256.49 888.452,1262.49 892.5,1267.5C 846.069,1295.22 799.736,1323.22 753.5,1351.5C 706.876,1352.49 660.209,1352.82 613.5,1352.5C 613.5,1324.5 613.5,1296.5 613.5,1268.5C 619.726,1268.07 625.726,1267.07 631.5,1265.5C 713.155,1254.75 792.821,1236.08 870.5,1209.5 Z"/></g>
<g><path style="opacity:1" fill="#e0e0e0" d="M 1209.5,1210.5 C 1208.51,1212.41 1206.85,1213.41 1204.5,1213.5C 1205.66,1211.75 1207.33,1210.75 1209.5,1210.5 Z"/></g>
<g><path style="opacity:1" fill="#dcdcdc" d="M 199.5,1191.5 C 230.213,1208.85 262.213,1223.52 295.5,1235.5C 294.508,1235.33 293.842,1235.66 293.5,1236.5C 263.661,1226.08 234.995,1213.24 207.5,1198C 204.58,1196.05 201.913,1193.89 199.5,1191.5 Z"/></g>
<g><path style="opacity:1" fill="#f0f0f0" d="M 1007.5,1238.5 C 1007.5,1238.17 1007.5,1237.83 1007.5,1237.5C 1011.18,1237.33 1014.85,1237.5 1018.5,1238C 1019.74,1238.23 1020.74,1238.73 1021.5,1239.5C 1016.85,1239 1012.18,1238.67 1007.5,1238.5 Z"/></g>
<g><path style="opacity:1" fill="#dddddd" d="M 1007.5,1237.5 C 1007.5,1237.83 1007.5,1238.17 1007.5,1238.5C 994.155,1238.45 980.821,1238.79 967.5,1239.5C 969.969,1238.68 972.635,1238.18 975.5,1238C 986.161,1237.5 996.828,1237.33 1007.5,1237.5 Z"/></g>
<g><path style="opacity:1" fill="#e1e1e1" d="M 1023.5,1239.5 C 1026.5,1239.29 1029.16,1239.96 1031.5,1241.5C 1028.5,1241.71 1025.84,1241.04 1023.5,1239.5 Z"/></g>
<g><path style="opacity:1" fill="#d5d5d5" d="M 295.5,1235.5 C 330.766,1247.59 366.766,1256.26 403.5,1261.5C 401.143,1261.34 398.81,1261.5 396.5,1262C 397.737,1262.23 398.737,1262.73 399.5,1263.5C 363.11,1258.03 327.776,1249.03 293.5,1236.5C 293.842,1235.66 294.508,1235.33 295.5,1235.5 Z"/></g>
<g><path style="opacity:1" fill="#e5e5e5" d="M 1076.5,1256.5 C 1079.09,1256.46 1081.09,1257.46 1082.5,1259.5C 1080.03,1259.25 1078.03,1258.25 1076.5,1256.5 Z"/></g>
<g><path style="opacity:1" fill="#dddddd" d="M 647.5,1259.5 C 646.737,1260.27 645.737,1260.77 644.5,1261C 635.531,1262.23 626.531,1263.06 617.5,1263.5C 627.311,1261.75 637.311,1260.42 647.5,1259.5 Z"/></g>
<g><path style="opacity:1" fill="#d3d3d3" d="M 505.5,1203.5 C 506.817,1226.37 506.817,1249.37 505.5,1272.5C 504.833,1272.5 504.167,1272.5 503.5,1272.5C 468.55,1272.48 433.883,1269.48 399.5,1263.5C 398.737,1262.73 397.737,1262.23 396.5,1262C 398.81,1261.5 401.143,1261.34 403.5,1261.5C 437.22,1266.92 471.22,1269.59 505.5,1269.5C 505.5,1247.5 505.5,1225.5 505.5,1203.5 Z"/></g>
<g><path style="opacity:1" fill="#dddddd" d="M 503.5,1272.5 C 504.167,1272.5 504.833,1272.5 505.5,1272.5C 506.833,1299.17 506.833,1325.83 505.5,1352.5C 506.144,1325.61 505.477,1298.94 503.5,1272.5 Z"/></g>
<g><path style="opacity:1" fill="#dddddd" d="M 631.5,1265.5 C 625.726,1267.07 619.726,1268.07 613.5,1268.5C 613.5,1296.5 613.5,1324.5 613.5,1352.5C 660.209,1352.82 706.876,1352.49 753.5,1351.5C 706.845,1353.5 659.845,1354.16 612.5,1353.5C 612.169,1324.66 612.502,1296 613.5,1267.5C 619.428,1266.34 625.428,1265.68 631.5,1265.5 Z"/></g>
<g><path style="opacity:1" fill="#dadada" d="M 122.5,1369.5 C 122.034,1373.89 120.701,1377.89 118.5,1381.5C 118.678,1378.78 119.178,1376.12 120,1373.5C 120.2,1371.68 121.034,1370.35 122.5,1369.5 Z"/></g>
<g><path style="opacity:1" fill="#dadada" d="M 1796.5,1369.5 C 1797.12,1369.61 1797.62,1369.94 1798,1370.5C 1799.31,1374.07 1800.14,1377.74 1800.5,1381.5C 1798.3,1377.89 1796.97,1373.89 1796.5,1369.5 Z"/></g>
<g><path style="opacity:1" fill="#e6e6e6" d="M 140.5,1415.5 C 684.473,1416.5 1228.47,1416.83 1772.5,1416.5C 1501,1417.17 1229.33,1417.5 957.5,1417.5C 685.833,1417.33 414.167,1417.17 142.5,1417C 141.584,1416.72 140.918,1416.22 140.5,1415.5 Z"/></g>
</svg>
