<svg width="1787" height="1035" viewBox="0 0 1787 1035" fill="none" xmlns="http://www.w3.org/2000/svg">
<g clip-path="url(#clip0_50_141)">
<path fill-rule="evenodd" clip-rule="evenodd" d="M268.5 131.5C436 130.833 603.666 130.5 771.5 130.5C939.167 130.667 1106.83 130.833 1274.5 131C1276.06 131.21 1277.39 131.71 1278.5 132.5C941.85 131.503 605.184 131.17 268.5 131.5Z" fill="#F6F6F6"/>
<path fill-rule="evenodd" clip-rule="evenodd" d="M268.5 131.5C605.184 131.17 941.85 131.503 1278.5 132.5C1311.17 138.328 1333.01 156.995 1344 188.5C1353.98 234.036 1338.48 267.536 1297.5 289C1293.14 290.184 1288.81 291.351 1284.5 292.5C1280.12 292.577 1275.79 293.077 1271.5 294C1033 294.167 794.666 294.667 556.5 295.5C555.833 295.5 555.167 295.5 554.5 295.5C554.83 276.659 554.497 257.993 553.5 239.5C553.5 238.5 553.5 237.5 553.5 236.5C553.712 232.655 552.712 229.321 550.5 226.5C545.165 210.996 534.831 200.163 519.5 194C492.182 186.05 470.182 193.55 453.5 216.5C451.529 221.433 449.862 226.433 448.5 231.5C447.732 232.263 447.232 233.263 447 234.5C446.5 254.831 446.333 275.164 446.5 295.5C387.832 295.667 329.166 295.5 270.5 295C236.657 289.819 213.49 271.319 201 239.5C189.754 192.131 205.588 157.631 248.5 136C255.04 133.965 261.707 132.465 268.5 131.5Z" fill="#F1F1F1"/>
<path fill-rule="evenodd" clip-rule="evenodd" d="M550.5 226.5C551.137 229.456 551.637 232.456 552 235.5C552.383 236.056 552.883 236.389 553.5 236.5C553.5 237.5 553.5 238.5 553.5 239.5C553.5 344.5 553.5 449.5 553.5 554.5C555.857 554.663 558.19 554.497 560.5 554C561.056 553.617 561.389 553.117 561.5 552.5C605.021 538.14 631.521 508.473 641 463.5C642 452.833 643 442.167 644 431.5C650.388 409.942 664.555 396.942 686.5 392.5C693.862 392.365 701.196 392.698 708.5 393.5C732.194 399.858 745.527 415.192 748.5 439.5C748.72 452.885 748.053 466.219 746.5 479.5C740.689 514.303 727.689 545.97 707.5 574.5C693.297 592.54 677.297 608.7 659.5 623C652.526 626.82 645.859 631.16 639.5 636C631.28 639.61 623.28 643.45 615.5 647.5C611.077 647.88 607.41 649.55 604.5 652.5C587.889 657.71 570.889 661.37 553.5 663.5C553.168 719.67 553.501 775.67 554.5 831.5C555.833 832.83 555.833 834.17 554.5 835.5C553.502 864 553.169 892.66 553.5 921.5C600.845 922.16 647.845 921.5 694.5 919.5C740.736 891.22 787.069 863.22 833.5 835.5C856.44 820.87 881.44 811.54 908.5 807.5C921.821 806.79 935.155 806.45 948.5 806.5C953.18 806.67 957.85 807 962.5 807.5C963.17 807.5 963.83 807.5 964.5 807.5C966.84 809.04 969.5 809.71 972.5 809.5C988.39 812.39 1003.39 817.39 1017.5 824.5C1019.03 826.25 1021.03 827.25 1023.5 827.5C1029.69 829.97 1035.36 833.47 1040.5 838C1042.91 839.88 1045.58 840.55 1048.5 840C1051.17 838 1053.83 836 1056.5 834C1086.21 816.48 1115.88 798.98 1145.5 781.5C1147.85 781.41 1149.51 780.41 1150.5 778.5C1154.03 776.23 1157.7 774.23 1161.5 772.5C1164.13 771.13 1166.97 770.13 1170 769.5C1171.03 769.16 1171.53 768.5 1171.5 767.5C1175.53 765.78 1179.53 764.12 1183.5 762.5C1187.1 763.62 1190.1 762.62 1192.5 759.5C1198.88 757.09 1205.54 755.42 1212.5 754.5C1220.67 753.78 1228.67 752.78 1236.5 751.5C1247.19 751.39 1257.85 751.72 1268.5 752.5C1276.65 753.03 1284.65 754.37 1292.5 756.5C1297.62 758.3 1302.95 759.8 1308.5 761C1332.17 770.62 1354.5 782.95 1375.5 798C1397.45 809.64 1418.79 822.31 1439.5 836C1445.61 838.11 1450.94 841.44 1455.5 846C1463.71 850.61 1472.05 854.94 1480.5 859C1485.52 862.7 1490.52 866.37 1495.5 870C1513.67 878.76 1531.01 889.09 1547.5 901C1558 905.41 1567.66 911.08 1576.5 918C1577.83 918.67 1579.17 919.33 1580.5 920C1592.5 920.5 1604.5 920.67 1616.5 920.5C1648.84 920.33 1681.17 920.5 1713.5 921C1724.12 922.8 1732.12 928.3 1737.5 937.5C1737.97 941.89 1739.3 945.89 1741.5 949.5C1741.43 968.67 1732.1 980.33 1713.5 984.5C1169.47 984.83 625.473 984.5 81.5001 983.5C70.4431 980.11 63.4431 972.77 60.5001 961.5C59.6381 957.55 59.3051 953.55 59.5001 949.5C61.7011 945.89 63.0341 941.89 63.5001 937.5C65.6861 932.64 69.0191 928.64 73.5001 925.5C76.7561 923.7 80.0891 922.2 83.5001 921C125.499 920.5 167.499 920.33 209.5 920.5C288.5 920.5 367.5 920.5 446.5 920.5C447.833 893.83 447.833 867.17 446.5 840.5C447.817 817.37 447.817 794.37 446.5 771.5C421.141 769.03 397.141 762.03 374.5 750.5C365.677 745.59 357.011 740.42 348.5 735C341.313 729.91 334.313 724.57 327.5 719C296.796 690.1 274.796 655.6 261.5 615.5C259.063 602.15 256.563 588.81 254 575.5C253.5 519.501 253.333 463.501 253.5 407.5C254.139 398.921 256.472 390.921 260.5 383.5C262.587 382.415 263.92 380.749 264.5 378.5C265.443 375.891 267.11 373.891 269.5 372.5C274.012 368.44 279.012 365.106 284.5 362.5C286.848 360.903 289.514 359.903 292.5 359.5C295.428 359.435 298.095 358.768 300.5 357.5C321.193 356.269 338.026 363.603 351 379.5C354.412 385.182 356.912 391.182 358.5 397.5C359.142 452.986 359.808 508.32 360.5 563.5C361.612 575.62 364.446 587.28 369 598.5C376.874 613.38 386.707 626.88 398.5 639C411.31 648.74 425.31 656.41 440.5 662C442.473 662.5 444.473 662.66 446.5 662.5C447.174 518.984 447.841 375.317 448.5 231.5C449.862 226.433 451.529 221.433 453.5 216.5C470.182 193.55 492.182 186.05 519.5 194C534.831 200.163 545.165 210.996 550.5 226.5Z" fill="#cccccc"/>
<path fill-rule="evenodd" clip-rule="evenodd" d="M1490.5 218.5C1489.92 220.749 1488.59 222.415 1486.5 223.5C1487.08 221.251 1488.41 219.585 1490.5 218.5Z" fill="#EAEAEA"/>
<path fill-rule="evenodd" clip-rule="evenodd" d="M550.5 226.5C552.712 229.321 553.712 232.655 553.5 236.5C552.883 236.389 552.383 236.056 552 235.5C551.637 232.456 551.137 229.456 550.5 226.5Z" fill="#D9D9D9"/>
<path fill-rule="evenodd" clip-rule="evenodd" d="M1480.5 231.5C1479.58 234.089 1477.91 236.089 1475.5 237.5C1476.42 234.911 1478.09 232.911 1480.5 231.5Z" fill="#EAEAEA"/>
<path fill-rule="evenodd" clip-rule="evenodd" d="M1473.5 239.5C1470.8 244.901 1467.13 249.568 1462.5 253.5C1465.69 248.462 1469.35 243.795 1473.5 239.5Z" fill="#EDEDED"/>
<path fill-rule="evenodd" clip-rule="evenodd" d="M1395.5 408.5C1393.25 409.124 1391.58 410.457 1390.5 412.5C1381.05 420.065 1371.38 427.398 1361.5 434.5C1326.07 460.543 1289.07 484.043 1250.5 505C1248.83 505.333 1247.17 505.667 1245.5 506C1231.2 513.163 1216.87 519.997 1202.5 526.5C1200.68 532.306 1198.68 537.973 1196.5 543.5C1196.65 542.448 1196.48 541.448 1196 540.5C1195.71 542.044 1195.04 543.377 1194 544.5C1193.67 543.833 1193.33 543.167 1193 542.5C1192.31 543.357 1191.48 544.023 1190.5 544.5C1189.94 542.282 1189.94 539.949 1190.5 537.5C1190.42 536.07 1190.75 534.736 1191.5 533.5C1190.5 533.167 1189.5 532.833 1188.5 532.5C1180.36 535.254 1172.36 538.254 1164.5 541.5C1160.46 542.065 1156.8 543.399 1153.5 545.5C1149.11 546.681 1144.78 548.014 1140.5 549.5C1135.07 551.176 1129.74 552.842 1124.5 554.5C1077.63 568.76 1029.63 574.43 980.5 571.5C977.09 570.1 973.42 569.43 969.5 569.5C966.63 568.37 963.63 567.7 960.5 567.5C960.39 566.883 960.06 566.383 959.5 566C956.45 565.261 953.45 564.428 950.5 563.5C927.043 555.155 918.543 538.822 925 514.5C926.646 512.391 927.812 510.057 928.5 507.5C944.33 483.175 965.33 464.675 991.5 452C992.5 451 993.5 450 994.5 449C1034.75 429.342 1077.08 423.675 1121.5 432C1136.25 436.073 1150.25 441.573 1163.5 448.5C1170.3 453.132 1176.63 458.299 1182.5 464C1194.4 477.829 1201.4 493.996 1203.5 512.5C1246.85 492.155 1288.51 468.655 1328.5 442C1338.02 435.303 1347.35 428.47 1356.5 421.5C1414.91 376.261 1467.24 324.761 1513.5 267C1522.89 265.395 1526.39 269.229 1524 278.5C1485.52 325.817 1442.68 369.15 1395.5 408.5Z" fill="#CDCDCD"/>
<path fill-rule="evenodd" clip-rule="evenodd" d="M1433.5 275.5C1431.26 279.41 1428.26 282.743 1424.5 285.5C1426.79 281.538 1429.79 278.205 1433.5 275.5Z" fill="#DDDDDD"/>
<path fill-rule="evenodd" clip-rule="evenodd" d="M1284.5 292.5C1281.37 293.632 1278.04 294.465 1274.5 295C1035.17 295.5 795.834 295.667 556.5 295.5C794.666 294.667 1033 294.167 1271.5 294C1275.79 293.077 1280.12 292.577 1284.5 292.5Z" fill="#F5F5F5"/>
<path fill-rule="evenodd" clip-rule="evenodd" d="M448.5 231.5C447.841 375.317 447.174 518.984 446.5 662.5C446.5 601.83 446.5 541.167 446.5 480.5C446.5 418.833 446.5 357.167 446.5 295.5C446.333 275.164 446.5 254.831 447 234.5C447.232 233.263 447.732 232.263 448.5 231.5Z" fill="#E0E0E0"/>
<path fill-rule="evenodd" clip-rule="evenodd" d="M300.5 357.5C298.095 358.768 295.428 359.435 292.5 359.5C294.838 357.96 297.505 357.294 300.5 357.5Z" fill="#E0E0E0"/>
<path fill-rule="evenodd" clip-rule="evenodd" d="M1354.5 361.5C1353.29 364.044 1351.29 365.378 1348.5 365.5C1350.22 363.782 1352.22 362.449 1354.5 361.5Z" fill="#EBEBEB"/>
<path fill-rule="evenodd" clip-rule="evenodd" d="M284.5 362.5C279.012 365.106 274.012 368.44 269.5 372.5C272.979 366.992 277.979 363.659 284.5 362.5Z" fill="#E2E2E2"/>
<path fill-rule="evenodd" clip-rule="evenodd" d="M1311.5 386.5C1310.03 387.806 1308.7 389.306 1307.5 391C1297.24 398.28 1287.24 405.78 1277.5 413.5C1274.38 415.234 1271.38 417.234 1268.5 419.5C1267.65 420.966 1266.32 421.8 1264.5 422C1259.84 427.071 1260.84 429.404 1267.5 429C1285.34 415.977 1303.01 402.81 1320.5 389.5C1328.39 395.368 1336.05 401.701 1343.5 408.5C1347.28 412.415 1350.28 416.748 1352.5 421.5C1353.83 421.5 1355.17 421.5 1356.5 421.5C1347.35 428.47 1338.02 435.303 1328.5 442C1288.51 468.655 1246.85 492.155 1203.5 512.5C1201.4 493.996 1194.4 477.829 1182.5 464C1176.63 458.299 1170.3 453.132 1163.5 448.5C1150.25 441.573 1136.25 436.073 1121.5 432C1077.08 423.675 1034.75 429.342 994.5 449C993.5 450 992.5 451 991.5 452C965.33 464.675 944.33 483.175 928.5 507.5C928.225 505.158 927.392 505.158 926 507.5C864.261 544.009 825.261 597.68 809 668.5C801.916 701.83 801.749 735.16 808.5 768.5C808.167 769.17 807.833 769.83 807.5 770.5C809.045 771.45 810.712 771.79 812.5 771.5C739.568 796.69 664.901 815.36 588.5 827.5C578.311 828.42 568.311 829.75 558.5 831.5C557.167 831.5 555.833 831.5 554.5 831.5C553.501 775.67 553.168 719.67 553.5 663.5C570.889 661.37 587.889 657.71 604.5 652.5C608.395 651.05 612.062 649.38 615.5 647.5C623.28 643.45 631.28 639.61 639.5 636C645.859 631.16 652.526 626.82 659.5 623C677.297 608.7 693.297 592.54 707.5 574.5C727.689 545.97 740.689 514.303 746.5 479.5C749.429 466.264 750.096 452.93 748.5 439.5C745.527 415.192 732.194 399.858 708.5 393.5C704.44 391.983 700.107 391.316 695.5 391.5C692.314 391.502 689.314 391.835 686.5 392.5C664.555 396.942 650.388 409.942 644 431.5C643 442.167 642 452.833 641 463.5C631.521 508.473 605.021 538.14 561.5 552.5C559.236 553.219 556.903 553.552 554.5 553.5C554.5 494.833 554.5 436.167 554.5 377.5C792.46 376.335 1030.46 376.169 1268.5 377C1283.62 376.961 1297.96 380.128 1311.5 386.5Z" fill="#F1F1F1"/>
<path fill-rule="evenodd" clip-rule="evenodd" d="M1490.5 218.5C1488.41 219.585 1487.08 221.251 1486.5 223.5C1484.12 225.878 1482.12 228.545 1480.5 231.5C1478.09 232.911 1476.42 234.911 1475.5 237.5C1474.5 237.833 1473.83 238.5 1473.5 239.5C1469.35 243.795 1465.69 248.462 1462.5 253.5C1447.52 270.65 1432.02 287.317 1416 303.5C1395.93 323.404 1375.43 342.737 1354.5 361.5C1352.22 362.449 1350.22 363.782 1348.5 365.5C1339.46 373.874 1330.13 381.874 1320.5 389.5C1303.01 402.81 1285.34 415.977 1267.5 429C1260.84 429.404 1259.84 427.071 1264.5 422C1266.32 421.8 1267.65 420.966 1268.5 419.5C1272.32 418.754 1275.32 416.754 1277.5 413.5C1287.24 405.78 1297.24 398.28 1307.5 391C1308.7 389.306 1310.03 387.806 1311.5 386.5C1312.77 385.91 1314.1 385.41 1315.5 385C1333.76 369.421 1352.09 353.755 1370.5 338C1388.64 320.537 1406.64 303.037 1424.5 285.5C1428.26 282.743 1431.26 279.41 1433.5 275.5C1459.9 246.411 1484.57 215.744 1507.5 183.5C1511.48 175.537 1515.98 167.87 1521 160.5C1526.15 157.104 1528.15 158.438 1527 164.5C1525.25 166.49 1524.25 168.823 1524 171.5C1512.54 187.102 1501.37 202.769 1490.5 218.5Z" fill="#CECECE"/>
<path fill-rule="evenodd" clip-rule="evenodd" d="M264.5 378.5C263.92 380.749 262.587 382.415 260.5 383.5C261.08 381.251 262.413 379.585 264.5 378.5Z" fill="#E0E0E0"/>
<path fill-rule="evenodd" clip-rule="evenodd" d="M553.5 239.5C554.497 257.993 554.83 276.659 554.5 295.5C554.5 322.833 554.5 350.167 554.5 377.5C554.5 436.167 554.5 494.833 554.5 553.5C556.903 553.552 559.236 553.219 561.5 552.5C561.389 553.117 561.056 553.617 560.5 554C558.19 554.497 555.857 554.663 553.5 554.5C553.5 449.5 553.5 344.5 553.5 239.5Z" fill="#E1E1E1"/>
<path fill-rule="evenodd" clip-rule="evenodd" d="M686.5 392.5C689.314 391.835 692.314 391.502 695.5 391.5C700.107 391.316 704.44 391.983 708.5 393.5C701.196 392.698 693.862 392.365 686.5 392.5Z" fill="#DFDFDF"/>
<path fill-rule="evenodd" clip-rule="evenodd" d="M358.5 397.5C359.222 397.918 359.722 398.584 360 399.5C360.5 426.831 360.667 454.165 360.5 481.5C360.5 508.833 360.5 536.167 360.5 563.5C359.808 508.32 359.142 452.986 358.5 397.5Z" fill="#DCDCDC"/>
<path fill-rule="evenodd" clip-rule="evenodd" d="M1395.5 408.5C1394.46 410.531 1392.79 411.864 1390.5 412.5C1391.58 410.457 1393.25 409.124 1395.5 408.5Z" fill="#E9E9E9"/>
<path fill-rule="evenodd" clip-rule="evenodd" d="M1277.5 413.5C1275.32 416.754 1272.32 418.754 1268.5 419.5C1271.38 417.234 1274.38 415.234 1277.5 413.5Z" fill="#DCDCDC"/>
<path fill-rule="evenodd" clip-rule="evenodd" d="M1361.5 434.5C1368.58 448.836 1372.25 464.169 1372.5 480.5C1401.84 480.333 1431.17 480.5 1460.5 481C1521.61 484.902 1574.61 507.402 1619.5 548.5C1620.39 549.325 1620.72 550.325 1620.5 551.5C1624.17 553.167 1626.83 555.833 1628.5 559.5C1632.37 561.698 1635.71 564.698 1638.5 568.5C1692.18 634.3 1710.01 709.3 1692 793.5C1678.58 843.04 1653.41 885.37 1616.5 920.5C1604.5 920.67 1592.5 920.5 1580.5 920C1579.17 919.33 1577.83 918.67 1576.5 918C1567.66 911.08 1558 905.41 1547.5 901C1531.01 889.09 1513.67 878.76 1495.5 870C1490.52 866.37 1485.52 862.7 1480.5 859C1472.05 854.94 1463.71 850.61 1455.5 846C1450.94 841.44 1445.61 838.11 1439.5 836C1418.79 822.31 1397.45 809.64 1375.5 798C1354.5 782.95 1332.17 770.62 1308.5 761C1302.95 759.8 1297.62 758.3 1292.5 756.5C1294.2 756.66 1295.87 756.49 1297.5 756C1306.97 664.94 1277.63 589.11 1209.5 528.5C1207.39 527.056 1205.06 526.39 1202.5 526.5C1216.87 519.997 1231.2 513.163 1245.5 506C1247.17 505.667 1248.83 505.333 1250.5 505C1289.07 484.043 1326.07 460.543 1361.5 434.5Z" fill="#F1F1F1"/>
<path fill-rule="evenodd" clip-rule="evenodd" d="M1191.5 517.5C1190.93 515.922 1189.93 514.588 1188.5 513.5C1115.13 468.01 1037.79 460.343 956.5 490.5C956.76 488.224 958.09 487.057 960.5 487C972.16 474.666 985.49 464.666 1000.5 457C1035.92 439.705 1073.26 434.039 1112.5 440C1127.58 442.918 1141.92 447.585 1155.5 454C1159.59 458.077 1164.25 461.41 1169.5 464C1174.94 469.064 1179.94 474.564 1184.5 480.5C1191.16 491.649 1194.33 503.649 1194 516.5C1193.33 517.252 1192.5 517.586 1191.5 517.5Z" fill="#F1F1F1"/>
<path fill-rule="evenodd" clip-rule="evenodd" d="M748.5 439.5C750.096 452.93 749.429 466.264 746.5 479.5C748.053 466.219 748.72 452.885 748.5 439.5Z" fill="#DCDCDC"/>
<path fill-rule="evenodd" clip-rule="evenodd" d="M1191.5 517.5C1166.78 527.586 1141.78 536.586 1116.5 544.5C1113.5 544.294 1110.84 544.96 1108.5 546.5C1105.57 546.565 1102.91 547.232 1100.5 548.5C1097.85 548.41 1095.51 549.076 1093.5 550.5C1072.09 555.434 1050.42 558.934 1028.5 561C1011.43 561.982 994.43 561.482 977.5 559.5C970.54 557.915 963.54 556.249 956.5 554.5C935.521 547.204 929.187 533.204 937.5 512.5C942.48 503.865 948.81 496.532 956.5 490.5C1037.79 460.343 1115.13 468.01 1188.5 513.5C1189.93 514.588 1190.93 515.922 1191.5 517.5Z" fill="white"/>
<path fill-rule="evenodd" clip-rule="evenodd" d="M446.5 480.5C446.5 541.167 446.5 601.83 446.5 662.5C444.473 662.66 442.473 662.5 440.5 662C425.31 656.41 411.31 648.74 398.5 639C386.707 626.88 376.874 613.38 369 598.5C364.446 587.28 361.612 575.62 360.5 563.5C360.5 536.167 360.5 508.833 360.5 481.5C388.847 480.537 417.513 480.203 446.5 480.5Z" fill="#F1F1F1"/>
<path fill-rule="evenodd" clip-rule="evenodd" d="M928.5 507.5C927.812 510.057 926.646 512.391 925 514.5C918.543 538.822 927.043 555.155 950.5 563.5C953.35 565.729 956.69 567.062 960.5 567.5C963.63 567.7 966.63 568.37 969.5 569.5C972.91 570.9 976.58 571.57 980.5 571.5C1029.63 574.43 1077.63 568.76 1124.5 554.5C1130.41 554.361 1135.74 552.695 1140.5 549.5C1144.78 548.014 1149.11 546.681 1153.5 545.5C1157.73 545.543 1161.4 544.21 1164.5 541.5C1172.36 538.254 1180.36 535.254 1188.5 532.5C1189.5 532.833 1190.5 533.167 1191.5 533.5C1190.75 534.736 1190.42 536.07 1190.5 537.5C1189.26 539.214 1188.59 541.214 1188.5 543.5C1186.75 545.033 1185.75 547.033 1185.5 549.5C1181.23 557.608 1176.73 565.608 1172 573.5C1154.34 593.65 1134.84 611.99 1113.5 628.5C1083.1 650.2 1051.1 669.03 1017.5 685C995.88 696.4 973.88 706.9 951.5 716.5C949.03 716.75 947.03 717.75 945.5 719.5C901.922 738.1 857.588 755.43 812.5 771.5C810.712 771.79 809.045 771.45 807.5 770.5C807.833 769.83 808.167 769.17 808.5 768.5C801.749 735.16 801.916 701.83 809 668.5C825.261 597.68 864.261 544.009 926 507.5C927.392 505.158 928.225 505.158 928.5 507.5Z" fill="white"/>
<path fill-rule="evenodd" clip-rule="evenodd" d="M253.5 407.5C253.333 463.501 253.5 519.501 254 575.5C256.563 588.81 259.063 602.15 261.5 615.5C274.796 655.6 296.796 690.1 327.5 719C334.313 724.57 341.313 729.91 348.5 735C357.011 740.42 365.677 745.59 374.5 750.5C397.141 762.03 421.141 769.03 446.5 771.5C446.5 793.5 446.5 815.5 446.5 837.5C412.22 837.59 378.22 834.92 344.5 829.5C307.766 824.26 271.766 815.59 236.5 803.5C203.213 791.52 171.213 776.85 140.5 759.5C135.851 755.5 130.518 752.5 124.5 750.5C101.348 736 80.181 719 61 699.5C60.333 698.5 60.333 697.5 61 696.5C67.068 702.74 73.235 708.74 79.5 714.5C82.18 711.56 82.847 711.89 81.5 715.5C84.6 718.89 87.933 722.06 91.5 725C100.862 732.01 110.195 739.01 119.5 746C121.914 747.88 124.581 748.55 127.5 748C124.117 660.29 156.117 588.79 223.5 533.5C232.511 526.663 241.845 520.33 251.5 514.5C252.167 478.669 252.833 443.002 253.5 407.5Z" fill="#F1F1F1"/>
<path fill-rule="evenodd" clip-rule="evenodd" d="M1202.5 526.5C1205.06 526.39 1207.39 527.056 1209.5 528.5C1277.63 589.11 1306.97 664.94 1297.5 756C1295.87 756.49 1294.2 756.66 1292.5 756.5C1284.65 754.37 1276.65 753.03 1268.5 752.5C1267.39 751.71 1266.06 751.21 1264.5 751C1253.33 750.17 1242.33 750.34 1231.5 751.5C1224.86 751.45 1218.53 752.45 1212.5 754.5C1205.54 755.42 1198.88 757.09 1192.5 759.5C1189.14 759.69 1186.14 760.69 1183.5 762.5C1179.53 764.12 1175.53 765.78 1171.5 767.5C1168.95 768.61 1166.28 769.44 1163.5 770C1162.62 770.71 1161.95 771.54 1161.5 772.5C1157.7 774.23 1154.03 776.23 1150.5 778.5C1148.33 778.75 1146.66 779.75 1145.5 781.5C1115.88 798.98 1086.21 816.48 1056.5 834C1053.83 836 1051.17 838 1048.5 840C1045.58 840.55 1042.91 839.88 1040.5 838C1035.36 833.47 1029.69 829.97 1023.5 827.5C1022.09 825.46 1020.09 824.46 1017.5 824.5C1003.39 817.39 988.39 812.39 972.5 809.5C970.16 807.96 967.5 807.29 964.5 807.5C963.83 807.5 963.17 807.5 962.5 807.5C961.74 806.73 960.74 806.23 959.5 806C955.85 805.5 952.18 805.33 948.5 805.5C937.828 805.33 927.161 805.5 916.5 806C913.635 806.18 910.969 806.68 908.5 807.5C881.44 811.54 856.44 820.87 833.5 835.5C829.452 830.49 825.952 824.49 823 817.5C818.886 805.48 814.719 793.65 810.5 782C810.912 780.44 811.245 778.94 811.5 777.5C825.362 772.66 839.362 767.99 853.5 763.5C859.007 762.55 864.007 760.55 868.5 757.5C874.999 753.94 881.999 751.44 889.5 750C917.121 738.23 944.79 726.4 972.5 714.5C974.97 714.25 976.97 713.25 978.5 711.5C980.83 710.63 983.16 709.63 985.5 708.5C987.97 708.25 989.97 707.25 991.5 705.5C993.69 704.24 996.02 703.24 998.5 702.5C1000.97 702.35 1002.97 701.35 1004.5 699.5C1021.47 691.98 1037.81 683.48 1053.5 674C1055.17 673.67 1056.83 673.33 1058.5 673C1061.2 670.32 1064.2 667.98 1067.5 666C1088.28 655.29 1107.61 642.63 1125.5 628C1150.77 610.23 1171.77 588.4 1188.5 562.5C1190.97 559.663 1192.63 556.329 1193.5 552.5C1194.7 549.579 1195.7 546.579 1196.5 543.5C1198.68 537.973 1200.68 532.306 1202.5 526.5Z" fill="white"/>
<path fill-rule="evenodd" clip-rule="evenodd" d="M1164.5 541.5C1161.4 544.21 1157.73 545.543 1153.5 545.5C1156.8 543.399 1160.46 542.065 1164.5 541.5Z" fill="#ECECEC"/>
<path fill-rule="evenodd" clip-rule="evenodd" d="M1116.5 544.5C1114.09 545.768 1111.43 546.435 1108.5 546.5C1110.84 544.96 1113.5 544.294 1116.5 544.5Z" fill="#E1E1E1"/>
<path fill-rule="evenodd" clip-rule="evenodd" d="M1188.5 543.5C1188.25 545.967 1187.25 547.967 1185.5 549.5C1185.75 547.033 1186.75 545.033 1188.5 543.5Z" fill="#E6E6E6"/>
<path fill-rule="evenodd" clip-rule="evenodd" d="M1100.5 548.5C1098.49 549.924 1096.15 550.59 1093.5 550.5C1095.51 549.076 1097.85 548.41 1100.5 548.5Z" fill="#E4E4E4"/>
<path fill-rule="evenodd" clip-rule="evenodd" d="M1140.5 549.5C1135.74 552.695 1130.41 554.361 1124.5 554.5C1129.74 552.842 1135.07 551.176 1140.5 549.5Z" fill="#EEEEEE"/>
<path fill-rule="evenodd" clip-rule="evenodd" d="M956.5 554.5C963.54 556.249 970.54 557.915 977.5 559.5C969.95 559.39 962.95 557.723 956.5 554.5Z" fill="#EEEEEE"/>
<path fill-rule="evenodd" clip-rule="evenodd" d="M1193.5 552.5C1192.63 556.329 1190.97 559.663 1188.5 562.5C1189.37 558.671 1191.03 555.337 1193.5 552.5Z" fill="#E9E9E9"/>
<path fill-rule="evenodd" clip-rule="evenodd" d="M950.5 563.5C953.45 564.428 956.45 565.261 959.5 566C960.06 566.383 960.39 566.883 960.5 567.5C956.69 567.062 953.35 565.729 950.5 563.5Z" fill="#E4E4E4"/>
<path fill-rule="evenodd" clip-rule="evenodd" d="M969.5 569.5C973.42 569.43 977.09 570.1 980.5 571.5C976.58 571.57 972.91 570.9 969.5 569.5Z" fill="#E6E6E6"/>
<path fill-rule="evenodd" clip-rule="evenodd" d="M615.5 647.5C612.062 649.38 608.395 651.05 604.5 652.5C607.41 649.55 611.077 647.88 615.5 647.5Z" fill="#E3E3E3"/>
<path fill-rule="evenodd" clip-rule="evenodd" d="M1004.5 699.5C1002.97 701.35 1000.97 702.35 998.5 702.5C999.91 700.46 1001.91 699.46 1004.5 699.5Z" fill="#E2E2E2"/>
<path fill-rule="evenodd" clip-rule="evenodd" d="M991.5 705.5C989.97 707.25 987.97 708.25 985.5 708.5C987.03 706.75 989.03 705.75 991.5 705.5Z" fill="#E8E8E8"/>
<path fill-rule="evenodd" clip-rule="evenodd" d="M978.5 711.5C976.97 713.25 974.97 714.25 972.5 714.5C974.03 712.75 976.03 711.75 978.5 711.5Z" fill="#EAEAEA"/>
<path fill-rule="evenodd" clip-rule="evenodd" d="M951.5 716.5C949.97 718.25 947.97 719.25 945.5 719.5C947.03 717.75 949.03 716.75 951.5 716.5Z" fill="#E3E3E3"/>
<path fill-rule="evenodd" clip-rule="evenodd" d="M1231.5 751.5C1242.33 750.34 1253.33 750.17 1264.5 751C1266.06 751.21 1267.39 751.71 1268.5 752.5C1257.85 751.72 1247.19 751.39 1236.5 751.5C1234.83 751.5 1233.17 751.5 1231.5 751.5Z" fill="#EBEBEB"/>
<path fill-rule="evenodd" clip-rule="evenodd" d="M1231.5 751.5C1233.17 751.5 1234.83 751.5 1236.5 751.5C1228.67 752.78 1220.67 753.78 1212.5 754.5C1218.53 752.45 1224.86 751.45 1231.5 751.5Z" fill="#E0E0E0"/>
<path fill-rule="evenodd" clip-rule="evenodd" d="M124.5 750.5C130.518 752.5 135.851 755.5 140.5 759.5C135.453 758.48 131.12 756.14 127.5 752.5C126.29 752.07 125.29 751.4 124.5 750.5Z" fill="#E2E2E2"/>
<path fill-rule="evenodd" clip-rule="evenodd" d="M127.5 752.5C131.12 756.14 135.453 758.48 140.5 759.5C142.913 761.89 145.58 764.05 148.5 766C175.995 781.24 204.661 794.08 234.5 804.5C268.776 817.03 304.11 826.03 340.5 831.5C374.883 837.48 409.55 840.48 444.5 840.5C446.477 866.94 447.144 893.61 446.5 920.5C367.5 920.5 288.5 920.5 209.5 920.5C160.983 875.01 133.649 819.01 127.5 752.5Z" fill="#F1F1F1"/>
<path fill-rule="evenodd" clip-rule="evenodd" d="M868.5 757.5C864.007 760.55 859.007 762.55 853.5 763.5C853.611 762.88 853.944 762.38 854.5 762C859.111 760.19 863.777 758.69 868.5 757.5Z" fill="#EFEFEF"/>
<path fill-rule="evenodd" clip-rule="evenodd" d="M1192.5 759.5C1190.1 762.62 1187.1 763.62 1183.5 762.5C1186.14 760.69 1189.14 759.69 1192.5 759.5Z" fill="#DADADA"/>
<path fill-rule="evenodd" clip-rule="evenodd" d="M1171.5 767.5C1171.53 768.5 1171.03 769.16 1170 769.5C1166.97 770.13 1164.13 771.13 1161.5 772.5C1161.95 771.54 1162.62 770.71 1163.5 770C1166.28 769.44 1168.95 768.61 1171.5 767.5Z" fill="#DCDCDC"/>
<path fill-rule="evenodd" clip-rule="evenodd" d="M1190.5 537.5C1189.94 539.949 1189.94 542.282 1190.5 544.5C1191.48 544.023 1192.31 543.357 1193 542.5C1193.33 543.167 1193.67 543.833 1194 544.5C1195.04 543.377 1195.71 542.044 1196 540.5C1196.48 541.448 1196.65 542.448 1196.5 543.5C1195.7 546.579 1194.7 549.579 1193.5 552.5C1191.03 555.337 1189.37 558.671 1188.5 562.5C1171.77 588.4 1150.77 610.23 1125.5 628C1107.61 642.63 1088.28 655.29 1067.5 666C1064.2 667.98 1061.2 670.32 1058.5 673C1056.83 673.33 1055.17 673.67 1053.5 674C1037.81 683.48 1021.47 691.98 1004.5 699.5C1001.91 699.46 999.91 700.46 998.5 702.5C996.02 703.24 993.69 704.24 991.5 705.5C989.03 705.75 987.03 706.75 985.5 708.5C983.16 709.63 980.83 710.63 978.5 711.5C976.03 711.75 974.03 712.75 972.5 714.5C944.79 726.4 917.121 738.23 889.5 750C881.999 751.44 874.999 753.94 868.5 757.5C863.777 758.69 859.111 760.19 854.5 762C853.944 762.38 853.611 762.88 853.5 763.5C839.362 767.99 825.362 772.66 811.5 777.5C733.821 804.08 654.155 822.75 572.5 833.5C566.428 833.68 560.428 834.34 554.5 835.5C555.833 834.17 555.833 832.83 554.5 831.5C555.833 831.5 557.167 831.5 558.5 831.5C567.531 831.06 576.531 830.23 585.5 829C586.737 828.77 587.737 828.27 588.5 827.5C664.901 815.36 739.568 796.69 812.5 771.5C857.588 755.43 901.922 738.1 945.5 719.5C947.97 719.25 949.97 718.25 951.5 716.5C973.88 706.9 995.88 696.4 1017.5 685C1051.1 669.03 1083.1 650.2 1113.5 628.5C1134.84 611.99 1154.34 593.65 1172 573.5C1176.73 565.608 1181.23 557.608 1185.5 549.5C1187.25 547.967 1188.25 545.967 1188.5 543.5C1188.59 541.214 1189.26 539.214 1190.5 537.5Z" fill="#CFCFCF"/>
<path fill-rule="evenodd" clip-rule="evenodd" d="M811.5 777.5C811.245 778.94 810.912 780.44 810.5 782C814.719 793.65 818.886 805.48 823 817.5C825.952 824.49 829.452 830.49 833.5 835.5C787.069 863.22 740.736 891.22 694.5 919.5C647.876 920.49 601.209 920.82 554.5 920.5C554.5 892.5 554.5 864.5 554.5 836.5C560.726 836.07 566.726 835.07 572.5 833.5C654.155 822.75 733.821 804.08 811.5 777.5Z" fill="#F1F1F1"/>
<path fill-rule="evenodd" clip-rule="evenodd" d="M1150.5 778.5C1149.51 780.41 1147.85 781.41 1145.5 781.5C1146.66 779.75 1148.33 778.75 1150.5 778.5Z" fill="#E0E0E0"/>
<path fill-rule="evenodd" clip-rule="evenodd" d="M140.5 759.5C171.213 776.85 203.213 791.52 236.5 803.5C235.508 803.33 234.842 803.66 234.5 804.5C204.661 794.08 175.995 781.24 148.5 766C145.58 764.05 142.913 761.89 140.5 759.5Z" fill="#DCDCDC"/>
<path fill-rule="evenodd" clip-rule="evenodd" d="M948.5 806.5C948.5 806.17 948.5 805.83 948.5 805.5C952.18 805.33 955.85 805.5 959.5 806C960.74 806.23 961.74 806.73 962.5 807.5C957.85 807 953.18 806.67 948.5 806.5Z" fill="#F0F0F0"/>
<path fill-rule="evenodd" clip-rule="evenodd" d="M948.5 805.5C948.5 805.83 948.5 806.17 948.5 806.5C935.155 806.45 921.821 806.79 908.5 807.5C910.969 806.68 913.635 806.18 916.5 806C927.161 805.5 937.828 805.33 948.5 805.5Z" fill="#DDDDDD"/>
<path fill-rule="evenodd" clip-rule="evenodd" d="M964.5 807.5C967.5 807.29 970.16 807.96 972.5 809.5C969.5 809.71 966.84 809.04 964.5 807.5Z" fill="#E1E1E1"/>
<path fill-rule="evenodd" clip-rule="evenodd" d="M236.5 803.5C271.766 815.59 307.766 824.26 344.5 829.5C342.143 829.34 339.81 829.5 337.5 830C338.737 830.23 339.737 830.73 340.5 831.5C304.11 826.03 268.776 817.03 234.5 804.5C234.842 803.66 235.508 803.33 236.5 803.5Z" fill="#D5D5D5"/>
<path fill-rule="evenodd" clip-rule="evenodd" d="M1017.5 824.5C1020.09 824.46 1022.09 825.46 1023.5 827.5C1021.03 827.25 1019.03 826.25 1017.5 824.5Z" fill="#E5E5E5"/>
<path fill-rule="evenodd" clip-rule="evenodd" d="M588.5 827.5C587.737 828.27 586.737 828.77 585.5 829C576.531 830.23 567.531 831.06 558.5 831.5C568.311 829.75 578.311 828.42 588.5 827.5Z" fill="#DDDDDD"/>
<path fill-rule="evenodd" clip-rule="evenodd" d="M446.5 771.5C447.817 794.37 447.817 817.37 446.5 840.5C445.833 840.5 445.167 840.5 444.5 840.5C409.55 840.48 374.883 837.48 340.5 831.5C339.737 830.73 338.737 830.23 337.5 830C339.81 829.5 342.143 829.34 344.5 829.5C378.22 834.92 412.22 837.59 446.5 837.5C446.5 815.5 446.5 793.5 446.5 771.5Z" fill="#D3D3D3"/>
<path fill-rule="evenodd" clip-rule="evenodd" d="M444.5 840.5C445.167 840.5 445.833 840.5 446.5 840.5C447.833 867.17 447.833 893.83 446.5 920.5C447.144 893.61 446.477 866.94 444.5 840.5Z" fill="#DDDDDD"/>
<path fill-rule="evenodd" clip-rule="evenodd" d="M572.5 833.5C566.726 835.07 560.726 836.07 554.5 836.5C554.5 864.5 554.5 892.5 554.5 920.5C601.209 920.82 647.876 920.49 694.5 919.5C647.845 921.5 600.845 922.16 553.5 921.5C553.169 892.66 553.502 864 554.5 835.5C560.428 834.34 566.428 833.68 572.5 833.5Z" fill="#DDDDDD"/>
<path fill-rule="evenodd" clip-rule="evenodd" d="M63.5 937.5C63.034 941.89 61.701 945.89 59.5 949.5C59.678 946.78 60.178 944.12 61 941.5C61.2 939.68 62.034 938.35 63.5 937.5Z" fill="#DADADA"/>
<path fill-rule="evenodd" clip-rule="evenodd" d="M1737.5 937.5C1738.12 937.61 1738.62 937.94 1739 938.5C1740.31 942.07 1741.14 945.74 1741.5 949.5C1739.3 945.89 1737.97 941.89 1737.5 937.5Z" fill="#DADADA"/>
<path fill-rule="evenodd" clip-rule="evenodd" d="M81.5 983.5C625.473 984.5 1169.47 984.83 1713.5 984.5C1442 985.17 1170.33 985.5 898.5 985.5C626.833 985.33 355.167 985.17 83.5 985C82.584 984.72 81.918 984.22 81.5 983.5Z" fill="#E6E6E6"/>
</g>
<defs>
<clipPath id="clip0_50_141">
<rect width="1787" height="1035" fill="white"/>
</clipPath>
</defs>
</svg>
