<svg width="204" height="32" viewBox="0 0 204 32" fill="none" xmlns="http://www.w3.org/2000/svg">
<path d="M21.8196 13.2787C26.2656 13.2787 26.6166 17.9587 26.6166 19.3627V31.4723H31.2967V18.1342C31.2967 15.0922 30.6532 12.8692 29.4832 11.5822C28.0791 10.0612 25.9731 9.24219 23.2821 9.24219C21.0006 9.24219 18.8946 10.1197 17.0811 11.8162C17.0226 11.8747 16.8471 11.9332 16.7886 11.8747C16.6716 11.8162 16.6131 11.6992 16.6131 11.5822V9.82719H11.7576V31.4138H16.6131V21.0592C16.6716 17.2567 16.9641 16.4377 17.7831 15.2677C18.6606 13.9222 20.0646 13.2787 21.8196 13.2787Z" fill="#303030"/>
<path d="M46.3325 8.83398C43.115 8.83398 40.3069 9.94549 38.0839 12.1685C35.8609 14.3915 34.6909 17.0825 34.6909 20.2415C34.6909 23.5761 35.8024 26.3841 38.0254 28.6071C40.2484 30.8301 42.998 32.0001 46.274 32.0001C49.6085 32.0001 52.4165 30.8886 54.6395 28.6656C56.8625 26.4426 58.0325 23.6931 58.0325 20.417C58.0325 17.1995 56.921 14.3915 54.6395 12.1685C52.358 9.94549 49.6085 8.83398 46.3325 8.83398ZM51.422 25.7991C50.135 27.1446 48.4385 27.8466 46.3325 27.8466C44.2265 27.8466 42.53 27.1446 41.243 25.7406C40.0144 24.3951 39.3709 22.5231 39.3709 20.2415C39.3709 18.077 40.0144 16.322 41.3014 14.9765C42.5885 13.5725 44.285 12.8705 46.3325 12.8705C48.4385 12.8705 50.135 13.5725 51.422 14.9765C52.709 16.322 53.294 18.1355 53.294 20.3585C53.294 22.6401 52.6505 24.4536 51.422 25.7991Z" fill="#303030"/>
<path d="M105.242 31.2979V9.4188H100.562V12.1683C100.562 12.2268 100.503 12.2853 100.445 12.2853C100.386 12.2853 100.328 12.2853 100.269 12.2268L99.9182 11.8758C97.8121 9.7698 95.4721 8.7168 92.8981 8.7168C89.8561 8.7168 87.3406 9.8283 85.3516 11.9928C83.3626 14.1573 82.3096 16.9068 82.3096 20.1829C82.3096 23.5174 83.3626 26.3254 85.3516 28.5484C87.3991 30.7129 89.9731 31.8244 93.0736 31.8244C95.5306 31.8244 97.8121 30.8299 99.9767 28.8994L100.328 28.6069C100.386 28.5484 100.445 28.5484 100.503 28.6069C100.562 28.6069 100.562 28.6654 100.562 28.7239V31.1809H105.242V31.2979ZM98.9822 25.8574C97.6951 27.2614 95.9986 27.9634 93.8926 27.9634C91.9621 27.9634 90.2656 27.2614 88.9786 25.7989C87.7501 24.3364 87.1066 22.5229 87.1066 20.2999C87.1066 18.1938 87.7501 16.3803 89.0371 14.9763C90.3241 13.5723 92.0206 12.8118 93.9511 12.8118C95.9986 12.8118 97.6951 13.5138 98.9822 14.9178C100.269 16.3803 100.913 18.1938 100.913 20.3584C100.913 22.5814 100.269 24.4534 98.9822 25.8574Z" fill="#303030"/>
<path d="M132.737 31.2977V0H128.057V12.1681C128.057 12.2266 127.999 12.2851 127.94 12.2851C127.882 12.2851 127.823 12.2851 127.765 12.2266L127.414 11.8756C125.308 9.76955 122.968 8.71654 120.335 8.71654C117.293 8.71654 114.778 9.82805 112.789 11.9926C110.8 14.1571 109.747 16.9651 109.747 20.1826C109.747 23.5171 110.8 26.3251 112.789 28.5481C114.836 30.7126 117.41 31.8242 120.452 31.8242C123.026 31.8242 125.366 30.8297 127.414 28.8991L127.765 28.5481C127.823 28.4896 127.882 28.4896 127.94 28.4896C127.999 28.4896 128.057 28.5481 128.057 28.6066V31.1222H132.737V31.2977ZM126.478 25.8571C125.191 27.2611 123.494 27.9631 121.388 27.9631C119.458 27.9631 117.761 27.2611 116.474 25.7986C115.246 24.3361 114.602 22.5226 114.602 20.2996C114.602 18.1936 115.246 16.3801 116.533 14.9761C117.82 13.5721 119.516 12.8116 121.447 12.8116C123.494 12.8116 125.191 13.5136 126.478 14.9176C127.765 16.3801 128.408 18.1936 128.408 20.3581C128.408 22.5811 127.765 24.4531 126.478 25.8571Z" fill="#303030"/>
<path d="M159.589 31.2979V9.4188H154.909V12.1683C154.909 12.2268 154.85 12.2853 154.792 12.2853C154.733 12.2853 154.675 12.2853 154.616 12.2268L154.265 11.8758C152.159 9.7698 149.819 8.7168 147.245 8.7168C144.203 8.7168 141.688 9.8283 139.699 11.9928C137.71 14.1573 136.657 16.9068 136.657 20.1829C136.657 23.5174 137.71 26.3254 139.699 28.5484C141.746 30.7129 144.32 31.8244 147.421 31.8244C149.878 31.8244 152.159 30.8299 154.324 28.8994L154.675 28.6069C154.733 28.5484 154.792 28.5484 154.85 28.6069C154.909 28.6069 154.909 28.6654 154.909 28.7239V31.1809H159.589V31.2979ZM153.329 25.8574C152.042 27.2614 150.346 27.9634 148.24 27.9634C146.309 27.9634 144.613 27.2614 143.326 25.7989C142.097 24.3949 141.454 22.5229 141.454 20.2999C141.454 18.1938 142.097 16.3803 143.384 14.9763C144.671 13.5723 146.368 12.8118 148.298 12.8118C150.346 12.8118 152.042 13.5138 153.329 14.9178C154.616 16.3803 155.26 18.1938 155.26 20.3584C155.26 22.5814 154.616 24.4534 153.329 25.8574Z" fill="#303030"/>
<path d="M203.348 31.2979V9.4188H198.668V12.1683C198.668 12.2268 198.61 12.2853 198.551 12.2853C198.493 12.2853 198.434 12.2853 198.376 12.2268L198.025 11.8758C195.919 9.7698 193.579 8.7168 191.005 8.7168C187.963 8.7168 185.447 9.8283 183.458 11.9928C181.469 14.1573 180.416 16.9068 180.416 20.1829C180.416 23.5174 181.469 26.3254 183.458 28.5484C185.506 30.7129 188.08 31.8244 191.18 31.8244C193.637 31.8244 195.919 30.8299 198.083 28.8994L198.434 28.6069C198.493 28.5484 198.551 28.5484 198.61 28.6069C198.668 28.6069 198.668 28.6654 198.668 28.7239V31.1809H203.348V31.2979ZM197.03 25.8574C195.743 27.2614 194.047 27.9634 191.941 27.9634C190.01 27.9634 188.314 27.2614 187.027 25.7989C185.798 24.3364 185.155 22.5229 185.155 20.2999C185.155 18.1938 185.798 16.3803 187.085 14.9763C188.372 13.5723 190.069 12.8118 191.999 12.8118C194.047 12.8118 195.743 13.5138 197.03 14.9178C198.317 16.3803 198.961 18.1938 198.961 20.3584C198.961 22.5814 198.317 24.4534 197.03 25.8574Z" fill="#303030"/>
<path d="M70.0825 22.3466C70.024 22.3466 69.9655 22.2881 69.9655 22.2881L63.8815 9.47656H58.6165L69.6145 31.5897H70.4335L81.5486 9.47656H76.2835L70.1995 22.2881C70.1995 22.3466 70.141 22.3466 70.0825 22.3466Z" fill="#303030"/>
<path d="M172.576 31.9425C174.331 31.9425 175.676 31.884 176.905 31.299V27.1455C176.203 27.321 175.384 27.438 174.623 27.438C172.459 27.438 171.23 26.2095 171.23 23.9864V13.8074C171.23 13.7489 171.289 13.6904 171.347 13.6904H176.963V9.36137H171.347C171.289 9.36137 171.23 9.30287 171.23 9.24437V3.27734H166.55V9.24437C166.55 9.30287 166.492 9.36137 166.433 9.36137H163.625V13.6904H166.433C166.492 13.6904 166.55 13.7489 166.55 13.8074V24.3374C166.55 29.193 168.773 31.9425 172.576 31.9425Z" fill="#303030"/>
<path d="M3.51002 31.8831C5.44855 31.8831 7.02003 30.3116 7.02003 28.3731C7.02003 26.4345 5.44855 24.863 3.51002 24.863C1.57149 24.863 0 26.4345 0 28.3731C0 30.3116 1.57149 31.8831 3.51002 31.8831Z" fill="#11D276"/>
</svg>
