<svg width="240" height="94" viewBox="0 0 240 94" fill="none" xmlns="http://www.w3.org/2000/svg">
  <path
    d="M59.3077 35.1755L0.791687 51.1081C0.251891 51.2549 -0.084945 51.7926 0.0186958 52.341L7.50243 92.3485C7.61471 92.9466 8.19985 93.3331 8.79362 93.1992L68.3374 79.741C68.9053 79.6136 69.2659 79.0544 69.1514 78.4844L60.6421 36.0003C60.519 35.3914 59.908 35.0114 59.3077 35.1755Z"
    fill="#11D276" />
  <path fill-rule="evenodd" clip-rule="evenodd"
    d="M7.49237 92.2901L27.5145 69.8584C21.8142 67.2501 14.6587 63.1584 8.6389 59.4101C5.48433 57.4452 2.63205 55.5689 0.459907 54.0423C0.412405 54.01 0.367057 53.9776 0.319555 53.943L0.0194253 52.3409C0.00647017 52.2718 0 52.2006 0 52.1315C0.36922 52.4014 0.770826 52.6885 1.19834 52.9887C3.34673 54.4979 6.17742 56.3613 9.31903 58.3175C15.6066 62.2321 23.1011 66.4987 28.8402 69.0422C30.6863 69.8605 32.3316 70.4932 33.6854 70.8775L36.745 66.6887L59.7813 35.1538C60.198 35.2315 60.5521 35.5532 60.6407 36.0002L60.6666 36.1254L38.2866 66.7621L69.1068 78.2511L69.1522 78.4843C69.2321 78.8773 69.0852 79.2659 68.7981 79.5099L37.4964 67.8438L34.4627 71.996L34.2058 72.3479L33.7826 72.24C32.3597 71.8729 30.6431 71.2337 28.7474 70.4089L8.39491 93.2121C7.95875 93.1452 7.58953 92.8105 7.50316 92.3484L7.49237 92.2901Z"
    fill="#01071B" />
  <path
    d="M122.603 4.21516L100.621 0.0069091C100.418 -0.0319562 100.219 0.0911035 100.163 0.289748L96.1553 14.7671C96.0949 14.983 96.2266 15.2076 96.4468 15.2594L118.369 20.4544C118.578 20.504 118.788 20.3788 118.844 20.1694L122.912 4.70529C122.97 4.4829 122.83 4.25834 122.603 4.21516Z"
    fill="#11D276" />
  <path fill-rule="evenodd" clip-rule="evenodd"
    d="M96.1632 14.7452L106.439 10.5564C104.973 8.76643 103.263 6.25099 101.876 4.03135C101.149 2.86755 100.507 1.78364 100.035 0.924283C100.024 0.90701 100.015 0.887575 100.004 0.868142L100.164 0.289469C100.173 0.263559 100.181 0.239815 100.192 0.216064C100.272 0.367207 100.358 0.526981 100.451 0.695397C100.92 1.54396 101.555 2.62139 102.278 3.77872C103.729 6.09768 105.521 8.72757 107.011 10.5003C107.49 11.0724 107.933 11.5475 108.319 11.8951L110.014 11.0033L122.766 4.28396C122.892 4.37896 122.957 4.54308 122.913 4.70502L122.903 4.75035L110.513 11.2776L118.867 20.0849L118.845 20.1691C118.807 20.3138 118.694 20.4174 118.56 20.4519L110.075 11.5086L108.397 12.3917L108.255 12.4673L108.132 12.3636C107.719 12.0095 107.255 11.5194 106.758 10.9386L96.3122 15.1986C96.1783 15.1058 96.1114 14.9331 96.1567 14.7668L96.1632 14.7452Z"
    fill="#01071B" />
  <path
    d="M239.036 15.4433L173.215 2.84226C172.608 2.72566 172.015 3.09487 171.851 3.6908L159.85 47.0364C159.671 47.6842 160.066 48.3514 160.72 48.5068L226.357 64.0659C226.983 64.2149 227.614 63.837 227.778 63.213L239.96 16.9115C240.135 16.2465 239.712 15.5728 239.036 15.4433Z"
    fill="#11D276" />
  <path fill-rule="evenodd" clip-rule="evenodd"
    d="M159.867 46.9733L190.636 34.4306C186.244 29.0736 181.126 21.5359 176.972 14.8943C174.796 11.4094 172.876 8.16412 171.46 5.59254C171.43 5.5364 171.399 5.48241 171.369 5.42628L171.851 3.69028C171.87 3.61471 171.898 3.5413 171.933 3.47437C172.17 3.92132 172.427 4.3985 172.708 4.9059C174.107 7.44726 176.011 10.6709 178.179 14.1386C182.519 21.0782 187.887 28.9528 192.348 34.2643C193.781 35.9723 195.107 37.3973 196.265 38.438L201.336 35.7671L239.517 15.6543C239.895 15.9329 240.089 16.423 239.96 16.911L239.925 17.047L202.831 36.5898L227.845 62.9599L227.778 63.2125C227.663 63.6422 227.329 63.9553 226.927 64.0589L201.524 37.2786L196.496 39.9257L196.068 40.1503L195.701 39.8372C194.468 38.7835 193.075 37.3153 191.592 35.5771L160.316 48.3271C159.915 48.0486 159.712 47.5368 159.85 47.0359L159.867 46.9733Z"
    fill="#01071B" />
</svg>
