<svg width="32" height="32" viewBox="0 0 32 32" fill="none" xmlns="http://www.w3.org/2000/svg">
<path fill-rule="evenodd" clip-rule="evenodd" d="M25.3334 28.0001V28.0001C23.8601 28.0001 22.6667 26.8067 22.6667 25.3334V25.3334C22.6667 23.8601 23.8601 22.6667 25.3334 22.6667V22.6667C26.8067 22.6667 28.0001 23.8601 28.0001 25.3334V25.3334C28.0001 26.8067 26.8067 28.0001 25.3334 28.0001Z" stroke="#606370" stroke-linecap="round" stroke-linejoin="round"/>
<path d="M15.9999 14.6667V22.6667" stroke="#606370" stroke-linecap="round" stroke-linejoin="round"/>
<path fill-rule="evenodd" clip-rule="evenodd" d="M15.9999 28.0001V28.0001C14.5266 28.0001 13.3333 26.8067 13.3333 25.3334V25.3334C13.3333 23.8601 14.5266 22.6667 15.9999 22.6667V22.6667C17.4733 22.6667 18.6666 23.8601 18.6666 25.3334V25.3334C18.6666 26.8067 17.4733 28.0001 15.9999 28.0001Z" stroke="#606370" stroke-linecap="round" stroke-linejoin="round"/>
<path fill-rule="evenodd" clip-rule="evenodd" d="M6.66667 28.0001V28.0001C5.19333 28.0001 4 26.8067 4 25.3334V25.3334C4 23.8601 5.19333 22.6667 6.66667 22.6667V22.6667C8.14 22.6667 9.33333 23.8601 9.33333 25.3334V25.3334C9.33333 26.8067 8.14 28.0001 6.66667 28.0001Z" stroke="#606370" stroke-linecap="round" stroke-linejoin="round"/>
<path d="M6.66675 22.6667V20.0001C6.66675 19.2641 7.26408 18.6667 8.00008 18.6667H24.0001C24.7361 18.6667 25.3334 19.2641 25.3334 20.0001V22.6667" stroke="#606370" stroke-linecap="round" stroke-linejoin="round"/>
<path fill-rule="evenodd" clip-rule="evenodd" d="M6.66675 6.00008C6.66675 4.15875 10.8454 2.66675 16.0001 2.66675C21.1547 2.66675 25.3334 4.15875 25.3334 6.00008V11.3334C25.3334 13.1747 21.1547 14.6667 16.0001 14.6667C10.8454 14.6667 6.66675 13.1747 6.66675 11.3334V6.00008Z" stroke="#606370" stroke-linecap="round" stroke-linejoin="round"/>
<path d="M25.3334 6C25.3334 7.84133 21.1547 9.33333 16.0001 9.33333C10.8454 9.33333 6.66675 7.84133 6.66675 6" stroke="#606370" stroke-linecap="round" stroke-linejoin="round"/>
</svg>
